<svg width="53" height="53" viewBox="0 0 53 53" fill="none" xmlns="http://www.w3.org/2000/svg">
<g clip-path="url(#clip0_183_566)">
<path d="M53 27.7754H50.4825V35.3445H53V27.7754Z" fill="black"/>
<path d="M52.9999 0H37.8618V5.05156H40.3793V2.53406H50.4824V5.05156H52.9999V0Z" fill="black"/>
<path d="M50.4825 35.3445H47.9485V40.3795H50.4825V35.3445Z" fill="black"/>
<path d="M50.4825 5.05151H47.9485V7.56901H50.4825V5.05151Z" fill="black"/>
<path d="M47.9484 17.6721H45.4309V20.1896H47.9484V17.6721Z" fill="black"/>
<path d="M47.9484 7.56909H45.4309V10.1032H47.9484V7.56909Z" fill="black"/>
<path d="M47.9485 40.3794H42.9135V42.9135H47.9485V40.3794Z" fill="black"/>
<path d="M45.431 20.1897H42.9135V22.7238H45.431V20.1897Z" fill="black"/>
<path d="M42.9135 12.6205H40.3794V15.1546H47.9485V17.6721H50.4825V12.6205H45.431V10.103H42.9135V12.6205Z" fill="black"/>
<path d="M42.9135 22.7236H40.3794V25.2411H42.9135V22.7236Z" fill="black"/>
<path d="M35.3278 53.0001V45.431H42.9134V42.9135H35.3278V35.3445H32.8103V37.862H30.2928V40.3795H27.7587V42.9135H25.2412V45.431H27.7587V47.9651H30.2928V50.4826H32.8103V53.0001H35.3278Z" fill="black"/>
<path d="M40.3793 25.2412H37.8618V27.7753H40.3793V25.2412Z" fill="black"/>
<path d="M37.8618 27.7754H35.3278V30.2929H37.8618V27.7754Z" fill="black"/>
<path d="M37.8619 17.6723H32.8103V15.1548H30.2928V20.1898H35.3278V22.7238H37.8619V17.6723Z" fill="black"/>
<path d="M37.8618 5.05151H35.3278V10.1031H37.8618V5.05151Z" fill="black"/>
<path d="M35.3278 22.7236H32.8103V27.7752H35.3278V22.7236Z" fill="black"/>
<path d="M35.3278 10.103H32.8103V15.1546H35.3278V10.103Z" fill="black"/>
<path d="M32.8103 27.7754H30.2928V32.8104H35.3278V30.2929H32.8103V27.7754Z" fill="black"/>
<path d="M20.1897 40.3795H22.7238V30.2929H25.2413V27.7754H17.6722V30.2929H20.1897V40.3795Z" fill="black"/>
<path d="M20.1897 40.3794H17.6722V42.9135H20.1897V40.3794Z" fill="black"/>
<path d="M17.6722 42.9133H15.1382V45.4308H17.6722V42.9133Z" fill="black"/>
<path d="M17.6722 30.2927H12.6206V32.8102H17.6722V30.2927Z" fill="black"/>
<path d="M15.1381 37.8618H10.1031V40.3793H15.1381V37.8618Z" fill="black"/>
<path d="M17.6722 12.6207V20.1898H20.1897V17.6723H22.7238V15.1548H25.2413V12.6207H27.7588V10.1032H25.2413V7.56918H22.7238V5.05168H20.1897V2.53418H17.6722V10.1032H10.1031V12.6207H17.6722Z" fill="black"/>
<path d="M15.1382 45.4309H7.56909V47.965H15.1382V45.4309Z" fill="black"/>
<path d="M12.6207 32.8103H7.56909V35.3444H12.6207V32.8103Z" fill="black"/>
<path d="M10.1032 40.3794H7.56909V42.9135H10.1032V40.3794Z" fill="black"/>
<path d="M10.1031 12.6206H5.05151V15.1547H10.1031V12.6206Z" fill="black"/>
<path d="M7.56901 42.9133H5.05151V45.4308H7.56901V42.9133Z" fill="black"/>
<path d="M7.56901 35.3445H5.05151V37.862H7.56901V35.3445Z" fill="black"/>
<path d="M5.05152 37.8618H2.51746V42.9134H5.05152V37.8618Z" fill="black"/>
<path d="M5.05152 15.1548H2.51746V20.1898H5.05152V15.1548Z" fill="black"/>
<path d="M5.05156 45.4309H0V47.965H5.05156V45.4309Z" fill="black"/>
<path d="M2.5175 20.1897H0V27.7753H2.5175V20.1897Z" fill="black"/>
</g>
<defs>
<clipPath id="clip0_183_566">
<rect width="53" height="53" fill="white"/>
</clipPath>
</defs>
</svg>
