<svg width="52" height="52" viewBox="0 0 52 52" fill="none" xmlns="http://www.w3.org/2000/svg">
<path d="M52 14.8606H49.5137V49.5218H52V14.8606Z" fill="black"/>
<path d="M49.5138 2.47803H42.0875V14.8605H44.5738V4.94803H47.0438V14.8605H49.5138V2.47803Z" fill="black"/>
<path d="M47.0437 39.6255H44.5737V42.0955H47.0437V39.6255Z" fill="black"/>
<path d="M47.0437 29.7131H44.5737V32.1831H47.0437V29.7131Z" fill="black"/>
<path d="M47.0437 19.8169H44.5737V22.2869H47.0437V19.8169Z" fill="black"/>
<path d="M39.6175 19.8168H34.6613V22.2868H39.6175V49.5218H42.0875V14.8606H39.6175V19.8168Z" fill="black"/>
<path d="M37.1475 4.948H34.6613V7.43425H37.1475V4.948Z" fill="black"/>
<path d="M37.1475 29.7131H32.1912V34.6694H37.1475V29.7131Z" fill="black"/>
<path d="M34.6613 2.47803H29.705V4.94803H34.6613V2.47803Z" fill="black"/>
<path d="M34.6613 22.2869H29.705V24.7569H34.6613V22.2869Z" fill="black"/>
<path d="M29.705 39.6255H24.765V44.5655H29.705V39.6255Z" fill="black"/>
<path d="M29.705 24.7568H24.765V27.2431H29.705V24.7568Z" fill="black"/>
<path d="M29.705 4.948H24.765V7.43425H29.705V4.948Z" fill="black"/>
<path d="M24.765 2.47803H22.2787V4.94803H24.765V2.47803Z" fill="black"/>
<path d="M22.2788 19.8169H17.3225V22.2869H19.8088V49.5219H22.2788V29.7131H24.765V27.2431H22.2788V19.8169Z" fill="black"/>
<path d="M17.3225 9.9043H14.8525V12.3743H17.3225V9.9043Z" fill="black"/>
<path d="M17.3225 29.7131H12.3825V34.6694H17.3225V29.7131Z" fill="black"/>
<path d="M17.3225 22.2869H12.3825V24.7569H17.3225V22.2869Z" fill="black"/>
<path d="M14.8525 7.43433H9.89624V9.90433H14.8525V7.43433Z" fill="black"/>
<path d="M12.3825 24.7568H7.42627V27.2431H12.3825V24.7568Z" fill="black"/>
<path d="M9.8963 39.6255H4.9563V44.5655H9.8963V39.6255Z" fill="black"/>
<path d="M9.8963 9.9043H4.9563V12.3743H9.8963V9.9043Z" fill="black"/>
<path d="M7.42622 27.2429H2.46997V29.7129H7.42622V27.2429Z" fill="black"/>
<path d="M4.95622 7.43433H2.46997V9.90433H4.95622V7.43433Z" fill="black"/>
<path d="M2.47 29.7131H0V49.5219H2.47V29.7131Z" fill="black"/>
</svg>
