<svg width="50" height="54" viewBox="0 0 50 54" fill="none" xmlns="http://www.w3.org/2000/svg">
<path d="M49.2589 25.3555H46.8364V40.5621H49.2589V25.3555Z" fill="black"/>
<path d="M46.8364 22.8267H44.4139V25.3555H46.8364V22.8267Z" fill="black"/>
<path d="M44.4139 30.4299H41.9755V35.4877H34.6921V30.4299H32.2696V40.5621H29.8311V43.1076H32.2696V53.2398H37.1305V45.6365H39.553V53.2398H44.4139V43.1076H46.8364V40.5621H44.4139V30.4299Z" fill="black"/>
<path d="M44.4139 20.281H41.9755V22.8265H44.4139V20.281Z" fill="black"/>
<path d="M44.4139 15.2065H41.9755V17.7521H44.4139V15.2065Z" fill="black"/>
<path d="M39.553 22.8267H37.1305V30.43H39.553V22.8267Z" fill="black"/>
<path d="M41.9755 17.7522H34.692V20.2811H41.9755V17.7522Z" fill="black"/>
<path d="M34.692 20.281H32.2695V22.8265H34.692V20.281Z" fill="black"/>
<path d="M34.692 15.2065H32.2695V17.7521H34.692V15.2065Z" fill="black"/>
<path d="M32.2696 22.8267H29.8311V25.3555H32.2696V22.8267Z" fill="black"/>
<path d="M34.6921 10.1488V7.6033H41.9755V10.1488H44.4139V15.2066H46.8364V5.07441H44.4139V2.52889H41.9755V0H34.6921V2.52889H32.2696V5.07441H29.8311V15.2066H32.2696V10.1488H34.6921Z" fill="black"/>
<path d="M29.8311 25.3555H27.4086V40.5621H29.8311V25.3555Z" fill="black"/>
<path d="M27.4086 45.6365H24.9861V48.1654H27.4086V45.6365Z" fill="black"/>
<path d="M27.4086 5.07446H24.9861V7.60335H27.4086V5.07446Z" fill="black"/>
<path d="M24.9861 43.1074H20.1251V45.6363H24.9861V43.1074Z" fill="black"/>
<path d="M24.9861 7.60327H20.1251V10.1488H24.9861V7.60327Z" fill="black"/>
<path d="M27.4086 0H20.1251V2.52889H27.4086V0Z" fill="black"/>
<path d="M27.4086 50.7107H20.1251V53.2396H27.4086V50.7107Z" fill="black"/>
<path d="M5.55829 38.0332V43.1076H7.98079V40.562H17.6867V43.1076H20.1252V40.562H22.5477V38.0332H15.2642V32.9587H12.8417V38.0332H5.55829Z" fill="black"/>
<path d="M20.1251 2.52881H15.2642V5.07433H20.1251V2.52881Z" fill="black"/>
<path d="M20.1251 48.1653H15.2642V50.7108H20.1251V48.1653Z" fill="black"/>
<path d="M15.2642 5.07446H10.4033V7.60335H15.2642V5.07446Z" fill="black"/>
<path d="M15.2642 45.6365H10.4033V48.1654H15.2642V45.6365Z" fill="black"/>
<path d="M10.4033 43.1074H7.98077V45.6363H10.4033V43.1074Z" fill="black"/>
<path d="M5.55829 15.2067H12.8417V20.2811H15.2642V15.2067H27.4086V12.6778H20.1252V10.1489H17.6867V12.6778H7.98079V10.1489H5.55829V15.2067Z" fill="black"/>
<path d="M10.4033 7.60327H7.98077V10.1488H10.4033V7.60327Z" fill="black"/>
<path d="M5.55825 32.9587H3.11981V38.0332H5.55825V32.9587Z" fill="black"/>
<path d="M5.55825 15.2065H3.11981V20.281H5.55825V15.2065Z" fill="black"/>
<path d="M10.4033 25.3554H3.11983V20.281H0.697327V32.9587H3.11983V27.8843H10.4033V32.9587H12.8417V27.8843H22.5476V25.3554H12.8417V20.281H10.4033V25.3554Z" fill="black"/>
</svg>
