<svg width="295" height="30" viewBox="0 0 295 30" fill="none" xmlns="http://www.w3.org/2000/svg">
<mask id="path-1-outside-1_183_468" maskUnits="userSpaceOnUse" x="-1" y="-1" width="297" height="32" fill="black">
<rect fill="white" x="-1" y="-1" width="297" height="32"/>
<path d="M11.6963 2H0.796289V16.45H11.6963C13.763 16.45 15.1463 15.95 15.8463 14.95C16.5463 13.95 16.8963 12.5333 16.8963 10.7V7.2C16.8963 5.66666 16.463 4.41667 15.5963 3.45C14.763 2.48333 13.463 2 11.6963 2ZM0.796289 28.5H0.296289V1.5H11.6963C13.6296 1.5 15.063 2.05 15.9963 3.15C16.9296 4.21667 17.3963 5.56667 17.3963 7.2V10.65C17.3963 12.1833 17.1963 13.45 16.7963 14.45C16.3963 15.4167 15.5963 16.0833 14.3963 16.45H14.9463C16.9796 16.45 18.4963 16.9167 19.4963 17.85C20.4963 18.75 20.9963 20.0667 20.9963 21.8V28.5H20.4963V21.8C20.4963 20.1667 20.0463 18.95 19.1463 18.15C18.2463 17.3167 16.8463 16.9 14.9463 16.9H0.796289V28.5ZM54.3545 28V28.5H37.5045V1.5H54.3545V2H38.0045V14.55H50.3045V15.05H38.0045V28H54.3545ZM85.5193 1.5V2H74.4193C73.0193 2 71.9027 2.38333 71.0693 3.15C70.236 3.91667 69.8193 4.88333 69.8193 6.05V10.15C69.8193 11.3167 70.0527 12.1333 70.5193 12.6C70.986 13.0667 71.6027 13.3667 72.3693 13.5L82.9193 15.65C83.9193 15.85 84.736 16.2833 85.3693 16.95C86.036 17.6167 86.3693 18.8167 86.3693 20.55V23.45C86.3693 24.9167 85.8693 26.1333 84.8693 27.1C83.8693 28.0333 82.5193 28.5 80.8193 28.5H68.3693V28H80.8193C82.3527 28 83.5693 27.5833 84.4693 26.75C85.4027 25.8833 85.8693 24.7833 85.8693 23.45V20.55C85.8693 18.9833 85.586 17.9167 85.0193 17.35C84.486 16.75 83.7527 16.35 82.8193 16.15L72.2693 14C71.4027 13.8333 70.686 13.5 70.1193 13C69.586 12.4667 69.3193 11.5167 69.3193 10.15V6.05C69.3193 4.71666 69.786 3.63333 70.7193 2.8C71.6527 1.93333 72.886 1.5 74.4193 1.5H85.5193ZM122.339 22.4C122.339 24.4 121.622 26.0333 120.189 27.3C118.756 28.5333 116.089 29.15 112.189 29.15C108.289 29.15 105.639 28.5333 104.239 27.3C102.839 26.0333 102.139 24.4 102.139 22.4V7.65C102.139 5.65 102.839 4.03333 104.239 2.8C105.639 1.53333 108.289 0.899999 112.189 0.899999C116.089 0.899999 118.756 1.53333 120.189 2.8C121.622 4.03333 122.339 5.65 122.339 7.65V22.4ZM102.639 22.4C102.639 24.2667 103.306 25.7833 104.639 26.95C105.972 28.0833 108.489 28.65 112.189 28.65C115.889 28.65 118.422 28.0833 119.789 26.95C121.156 25.7833 121.839 24.2667 121.839 22.4V7.65C121.839 5.78333 121.156 4.28333 119.789 3.15C118.422 1.98333 115.889 1.4 112.189 1.4C108.489 1.4 105.972 1.98333 104.639 3.15C103.306 4.28333 102.639 5.78333 102.639 7.65V22.4ZM139.404 1.5H139.904V22.35C139.904 24.2167 140.554 25.7333 141.854 26.9C143.187 28.0333 145.704 28.6 149.404 28.6C153.104 28.6 155.621 28.0333 156.954 26.9C158.287 25.7333 158.954 24.2167 158.954 22.35V1.5H159.454V22.35C159.454 24.35 158.754 25.9833 157.354 27.25C155.954 28.4833 153.304 29.1 149.404 29.1C145.504 29.1 142.854 28.4833 141.454 27.25C140.087 25.9833 139.404 24.35 139.404 22.35V1.5ZM188.259 2H177.359V16.45H188.259C190.325 16.45 191.709 15.95 192.409 14.95C193.109 13.95 193.459 12.5333 193.459 10.7V7.2C193.459 5.66666 193.025 4.41667 192.159 3.45C191.325 2.48333 190.025 2 188.259 2ZM177.359 28.5H176.859V1.5H188.259C190.192 1.5 191.625 2.05 192.559 3.15C193.492 4.21667 193.959 5.56667 193.959 7.2V10.65C193.959 12.1833 193.759 13.45 193.359 14.45C192.959 15.4167 192.159 16.0833 190.959 16.45H191.509C193.542 16.45 195.059 16.9167 196.059 17.85C197.059 18.75 197.559 20.0667 197.559 21.8V28.5H197.059V21.8C197.059 20.1667 196.609 18.95 195.709 18.15C194.809 17.3167 193.409 16.9 191.509 16.9H177.359V28.5ZM229.573 28V28.5H221.223C217.99 28.5 215.84 28 214.773 27C213.74 26 213.223 24.35 213.223 22.05V8.05C213.223 5.68333 213.756 4 214.823 3C215.89 2 218.023 1.5 221.223 1.5H229.573V2H221.223C218.29 2 216.306 2.46667 215.273 3.4C214.24 4.3 213.723 5.85 213.723 8.05V22.05C213.723 24.2167 214.223 25.75 215.223 26.65C216.223 27.55 218.223 28 221.223 28H229.573ZM262.069 28V28.5H245.219V1.5H262.069V2H245.719V14.55H258.019V15.05H245.719V28H262.069ZM293.234 1.5V2H282.134C280.734 2 279.618 2.38333 278.784 3.15C277.951 3.91667 277.534 4.88333 277.534 6.05V10.15C277.534 11.3167 277.768 12.1333 278.234 12.6C278.701 13.0667 279.318 13.3667 280.084 13.5L290.634 15.65C291.634 15.85 292.451 16.2833 293.084 16.95C293.751 17.6167 294.084 18.8167 294.084 20.55V23.45C294.084 24.9167 293.584 26.1333 292.584 27.1C291.584 28.0333 290.234 28.5 288.534 28.5H276.084V28H288.534C290.068 28 291.284 27.5833 292.184 26.75C293.118 25.8833 293.584 24.7833 293.584 23.45V20.55C293.584 18.9833 293.301 17.9167 292.734 17.35C292.201 16.75 291.468 16.35 290.534 16.15L279.984 14C279.118 13.8333 278.401 13.5 277.834 13C277.301 12.4667 277.034 11.5167 277.034 10.15V6.05C277.034 4.71666 277.501 3.63333 278.434 2.8C279.368 1.93333 280.601 1.5 282.134 1.5H293.234Z"/>
</mask>
<path d="M11.6963 2H0.796289V16.45H11.6963C13.763 16.45 15.1463 15.95 15.8463 14.95C16.5463 13.95 16.8963 12.5333 16.8963 10.7V7.2C16.8963 5.66666 16.463 4.41667 15.5963 3.45C14.763 2.48333 13.463 2 11.6963 2ZM0.796289 28.5H0.296289V1.5H11.6963C13.6296 1.5 15.063 2.05 15.9963 3.15C16.9296 4.21667 17.3963 5.56667 17.3963 7.2V10.65C17.3963 12.1833 17.1963 13.45 16.7963 14.45C16.3963 15.4167 15.5963 16.0833 14.3963 16.45H14.9463C16.9796 16.45 18.4963 16.9167 19.4963 17.85C20.4963 18.75 20.9963 20.0667 20.9963 21.8V28.5H20.4963V21.8C20.4963 20.1667 20.0463 18.95 19.1463 18.15C18.2463 17.3167 16.8463 16.9 14.9463 16.9H0.796289V28.5ZM54.3545 28V28.5H37.5045V1.5H54.3545V2H38.0045V14.55H50.3045V15.05H38.0045V28H54.3545ZM85.5193 1.5V2H74.4193C73.0193 2 71.9027 2.38333 71.0693 3.15C70.236 3.91667 69.8193 4.88333 69.8193 6.05V10.15C69.8193 11.3167 70.0527 12.1333 70.5193 12.6C70.986 13.0667 71.6027 13.3667 72.3693 13.5L82.9193 15.65C83.9193 15.85 84.736 16.2833 85.3693 16.95C86.036 17.6167 86.3693 18.8167 86.3693 20.55V23.45C86.3693 24.9167 85.8693 26.1333 84.8693 27.1C83.8693 28.0333 82.5193 28.5 80.8193 28.5H68.3693V28H80.8193C82.3527 28 83.5693 27.5833 84.4693 26.75C85.4027 25.8833 85.8693 24.7833 85.8693 23.45V20.55C85.8693 18.9833 85.586 17.9167 85.0193 17.35C84.486 16.75 83.7527 16.35 82.8193 16.15L72.2693 14C71.4027 13.8333 70.686 13.5 70.1193 13C69.586 12.4667 69.3193 11.5167 69.3193 10.15V6.05C69.3193 4.71666 69.786 3.63333 70.7193 2.8C71.6527 1.93333 72.886 1.5 74.4193 1.5H85.5193ZM122.339 22.4C122.339 24.4 121.622 26.0333 120.189 27.3C118.756 28.5333 116.089 29.15 112.189 29.15C108.289 29.15 105.639 28.5333 104.239 27.3C102.839 26.0333 102.139 24.4 102.139 22.4V7.65C102.139 5.65 102.839 4.03333 104.239 2.8C105.639 1.53333 108.289 0.899999 112.189 0.899999C116.089 0.899999 118.756 1.53333 120.189 2.8C121.622 4.03333 122.339 5.65 122.339 7.65V22.4ZM102.639 22.4C102.639 24.2667 103.306 25.7833 104.639 26.95C105.972 28.0833 108.489 28.65 112.189 28.65C115.889 28.65 118.422 28.0833 119.789 26.95C121.156 25.7833 121.839 24.2667 121.839 22.4V7.65C121.839 5.78333 121.156 4.28333 119.789 3.15C118.422 1.98333 115.889 1.4 112.189 1.4C108.489 1.4 105.972 1.98333 104.639 3.15C103.306 4.28333 102.639 5.78333 102.639 7.65V22.4ZM139.404 1.5H139.904V22.35C139.904 24.2167 140.554 25.7333 141.854 26.9C143.187 28.0333 145.704 28.6 149.404 28.6C153.104 28.6 155.621 28.0333 156.954 26.9C158.287 25.7333 158.954 24.2167 158.954 22.35V1.5H159.454V22.35C159.454 24.35 158.754 25.9833 157.354 27.25C155.954 28.4833 153.304 29.1 149.404 29.1C145.504 29.1 142.854 28.4833 141.454 27.25C140.087 25.9833 139.404 24.35 139.404 22.35V1.5ZM188.259 2H177.359V16.45H188.259C190.325 16.45 191.709 15.95 192.409 14.95C193.109 13.95 193.459 12.5333 193.459 10.7V7.2C193.459 5.66666 193.025 4.41667 192.159 3.45C191.325 2.48333 190.025 2 188.259 2ZM177.359 28.5H176.859V1.5H188.259C190.192 1.5 191.625 2.05 192.559 3.15C193.492 4.21667 193.959 5.56667 193.959 7.2V10.65C193.959 12.1833 193.759 13.45 193.359 14.45C192.959 15.4167 192.159 16.0833 190.959 16.45H191.509C193.542 16.45 195.059 16.9167 196.059 17.85C197.059 18.75 197.559 20.0667 197.559 21.8V28.5H197.059V21.8C197.059 20.1667 196.609 18.95 195.709 18.15C194.809 17.3167 193.409 16.9 191.509 16.9H177.359V28.5ZM229.573 28V28.5H221.223C217.99 28.5 215.84 28 214.773 27C213.74 26 213.223 24.35 213.223 22.05V8.05C213.223 5.68333 213.756 4 214.823 3C215.89 2 218.023 1.5 221.223 1.5H229.573V2H221.223C218.29 2 216.306 2.46667 215.273 3.4C214.24 4.3 213.723 5.85 213.723 8.05V22.05C213.723 24.2167 214.223 25.75 215.223 26.65C216.223 27.55 218.223 28 221.223 28H229.573ZM262.069 28V28.5H245.219V1.5H262.069V2H245.719V14.55H258.019V15.05H245.719V28H262.069ZM293.234 1.5V2H282.134C280.734 2 279.618 2.38333 278.784 3.15C277.951 3.91667 277.534 4.88333 277.534 6.05V10.15C277.534 11.3167 277.768 12.1333 278.234 12.6C278.701 13.0667 279.318 13.3667 280.084 13.5L290.634 15.65C291.634 15.85 292.451 16.2833 293.084 16.95C293.751 17.6167 294.084 18.8167 294.084 20.55V23.45C294.084 24.9167 293.584 26.1333 292.584 27.1C291.584 28.0333 290.234 28.5 288.534 28.5H276.084V28H288.534C290.068 28 291.284 27.5833 292.184 26.75C293.118 25.8833 293.584 24.7833 293.584 23.45V20.55C293.584 18.9833 293.301 17.9167 292.734 17.35C292.201 16.75 291.468 16.35 290.534 16.15L279.984 14C279.118 13.8333 278.401 13.5 277.834 13C277.301 12.4667 277.034 11.5167 277.034 10.15V6.05C277.034 4.71666 277.501 3.63333 278.434 2.8C279.368 1.93333 280.601 1.5 282.134 1.5H293.234Z" fill="black"/>
<path d="M0.796288 2V1H-0.203712V2H0.796288ZM0.796288 16.45H-0.203712V17.45H0.796288V16.45ZM15.8463 14.95L16.6655 15.5235L15.8463 14.95ZM15.5963 3.45L14.8389 4.10294L14.8452 4.1103L14.8517 4.11754L15.5963 3.45ZM0.796288 28.5V29.5H1.79629V28.5H0.796288ZM0.296288 28.5H-0.703712V29.5H0.296288V28.5ZM0.296288 1.5V0.499997H-0.703712V1.5H0.296288ZM15.9963 3.15L15.2338 3.79698L15.2387 3.80278L15.2437 3.80851L15.9963 3.15ZM16.7963 14.45L17.7204 14.8324L17.7248 14.8214L16.7963 14.45ZM14.3963 16.45L14.1041 15.4936L14.3963 17.45V16.45ZM19.4963 17.85L18.814 18.5811L18.8206 18.5872L18.8273 18.5933L19.4963 17.85ZM20.9963 28.5V29.5H21.9963V28.5H20.9963ZM20.4963 28.5H19.4963V29.5H20.4963V28.5ZM19.1463 18.15L18.4669 18.8838L18.4743 18.8907L18.4819 18.8974L19.1463 18.15ZM0.796288 16.9V15.9H-0.203712V16.9H0.796288ZM11.6963 1H0.796288V3H11.6963V1ZM-0.203712 2V16.45H1.79629V2H-0.203712ZM0.796288 17.45H11.6963V15.45H0.796288V17.45ZM11.6963 17.45C13.8641 17.45 15.6786 16.9334 16.6655 15.5235L15.0271 14.3765C14.614 14.9666 13.6619 15.45 11.6963 15.45V17.45ZM16.6655 15.5235C17.5287 14.2903 17.8963 12.6414 17.8963 10.7H15.8963C15.8963 12.4252 15.5639 13.6097 15.0271 14.3765L16.6655 15.5235ZM17.8963 10.7V7.2H15.8963V10.7H17.8963ZM17.8963 7.2C17.8963 5.46748 17.401 3.96491 16.3409 2.78245L14.8517 4.11754C15.5249 4.86842 15.8963 5.86585 15.8963 7.2H17.8963ZM16.3537 2.79706C15.2656 1.53481 13.6372 1 11.6963 1V3C13.2887 3 14.2604 3.43186 14.8389 4.10294L16.3537 2.79706ZM0.796288 27.5H0.296288V29.5H0.796288V27.5ZM1.29629 28.5V1.5H-0.703712V28.5H1.29629ZM0.296288 2.5H11.6963V0.499997H0.296288V2.5ZM11.6963 2.5C13.4418 2.5 14.5496 2.99067 15.2338 3.79698L16.7588 2.50302C15.5763 1.10932 13.8175 0.499997 11.6963 0.499997V2.5ZM15.2437 3.80851C15.9935 4.66538 16.3963 5.76967 16.3963 7.2H18.3963C18.3963 5.36366 17.8658 3.76795 16.7489 2.4915L15.2437 3.80851ZM16.3963 7.2V10.65H18.3963V7.2H16.3963ZM16.3963 10.65C16.3963 12.1058 16.2051 13.2354 15.8678 14.0786L17.7248 14.8214C18.1875 13.6646 18.3963 12.2609 18.3963 10.65H16.3963ZM15.8723 14.0676C15.6095 14.7026 15.0813 15.1951 14.1041 15.4936L14.6885 17.4064C16.1113 16.9716 17.183 16.1307 17.7203 14.8323L15.8723 14.0676ZM14.3963 17.45H14.9463V15.45H14.3963V17.45ZM14.9463 17.45C16.8473 17.45 18.0718 17.8884 18.814 18.5811L20.1786 17.1189C18.9207 15.9449 17.112 15.45 14.9463 15.45V17.45ZM18.8273 18.5933C19.5596 19.2524 19.9963 20.2632 19.9963 21.8H21.9963C21.9963 19.8701 21.4329 18.2476 20.1653 17.1067L18.8273 18.5933ZM19.9963 21.8V28.5H21.9963V21.8H19.9963ZM20.9963 27.5H20.4963V29.5H20.9963V27.5ZM21.4963 28.5V21.8H19.4963V28.5H21.4963ZM21.4963 21.8C21.4963 19.9876 20.9926 18.4532 19.8107 17.4026L18.4819 18.8974C19.1 19.4468 19.4963 20.3458 19.4963 21.8H21.4963ZM19.8257 17.4162C18.662 16.3387 16.9648 15.9 14.9463 15.9V17.9C16.7278 17.9 17.8306 18.2946 18.4669 18.8838L19.8257 17.4162ZM14.9463 15.9H0.796288V17.9H14.9463V15.9ZM-0.203712 16.9V28.5H1.79629V16.9H-0.203712ZM54.3545 28H55.3545V27H54.3545V28ZM54.3545 28.5V29.5H55.3545V28.5H54.3545ZM37.5045 28.5H36.5045V29.5H37.5045V28.5ZM37.5045 1.5V0.499997H36.5045V1.5H37.5045ZM54.3545 1.5H55.3545V0.499997H54.3545V1.5ZM54.3545 2V3H55.3545V2H54.3545ZM38.0045 2V1H37.0045V2H38.0045ZM38.0045 14.55H37.0045V15.55H38.0045V14.55ZM50.3045 14.55H51.3045V13.55H50.3045V14.55ZM50.3045 15.05V16.05H51.3045V15.05H50.3045ZM38.0045 15.05V14.05H37.0045V15.05H38.0045ZM38.0045 28H37.0045V29H38.0045V28ZM53.3545 28V28.5H55.3545V28H53.3545ZM54.3545 27.5H37.5045V29.5H54.3545V27.5ZM38.5045 28.5V1.5H36.5045V28.5H38.5045ZM37.5045 2.5H54.3545V0.499997H37.5045V2.5ZM53.3545 1.5V2H55.3545V1.5H53.3545ZM54.3545 1H38.0045V3H54.3545V1ZM37.0045 2V14.55H39.0045V2H37.0045ZM38.0045 15.55H50.3045V13.55H38.0045V15.55ZM49.3045 14.55V15.05H51.3045V14.55H49.3045ZM50.3045 14.05H38.0045V16.05H50.3045V14.05ZM37.0045 15.05V28H39.0045V15.05H37.0045ZM38.0045 29H54.3545V27H38.0045V29ZM85.5193 1.5H86.5193V0.499997H85.5193V1.5ZM85.5193 2V3H86.5193V2H85.5193ZM70.5193 12.6L71.2264 11.8929V11.8929L70.5193 12.6ZM72.3693 13.5L72.569 12.5201L72.5549 12.5173L72.5407 12.5148L72.3693 13.5ZM82.9193 15.65L82.7197 16.6299L82.7232 16.6306L82.9193 15.65ZM85.3693 16.95L84.6443 17.6388L84.6532 17.648L84.6622 17.6571L85.3693 16.95ZM84.8693 27.1L85.5517 27.8311L85.5581 27.8251L85.5644 27.819L84.8693 27.1ZM68.3693 28.5H67.3693V29.5H68.3693V28.5ZM68.3693 28V27H67.3693V28H68.3693ZM84.4693 26.75L85.1487 27.4838L85.1498 27.4828L84.4693 26.75ZM85.0193 17.35L84.2719 18.0144L84.2915 18.0363L84.3122 18.0571L85.0193 17.35ZM82.8193 16.15L83.0289 15.1721L83.019 15.1701L82.8193 16.15ZM72.2693 14L72.469 13.0201L72.4582 13.018L72.2693 14ZM70.1193 13L69.4122 13.7071L69.4343 13.7292L69.4577 13.7498L70.1193 13ZM70.7193 2.8L71.3853 3.54594L71.3926 3.53943L71.3998 3.53279L70.7193 2.8ZM84.5193 1.5V2H86.5193V1.5H84.5193ZM85.5193 1H74.4193V3H85.5193V1ZM74.4193 1C72.8306 1 71.4513 1.43978 70.3923 2.41407L71.7464 3.88593C72.354 3.32688 73.2081 3 74.4193 3V1ZM70.3923 2.41407C69.3462 3.3765 68.8193 4.61326 68.8193 6.05H70.8193C70.8193 5.1534 71.1259 4.45683 71.7464 3.88593L70.3923 2.41407ZM68.8193 6.05V10.15H70.8193V6.05H68.8193ZM68.8193 10.15C68.8193 11.3944 69.0576 12.5525 69.8122 13.3071L71.2264 11.8929C71.0477 11.7141 70.8193 11.239 70.8193 10.15H68.8193ZM69.8122 13.3071C70.4492 13.9441 71.2657 14.3231 72.198 14.4852L72.5407 12.5148C71.9397 12.4103 71.5228 12.1892 71.2264 11.8929L69.8122 13.3071ZM72.1696 14.4799L82.7197 16.6299L83.119 14.6701L72.569 12.5201L72.1696 14.4799ZM82.7232 16.6306C83.5441 16.7948 84.1684 17.1377 84.6443 17.6388L86.0943 16.2612C85.3036 15.4289 84.2946 14.9052 83.1154 14.6694L82.7232 16.6306ZM84.6622 17.6571C85.0357 18.0305 85.3693 18.8808 85.3693 20.55H87.3693C87.3693 18.7525 87.0363 17.2028 86.0764 16.2429L84.6622 17.6571ZM85.3693 20.55V23.45H87.3693V20.55H85.3693ZM85.3693 23.45C85.3693 24.6621 84.9678 25.6139 84.1743 26.381L85.5644 27.819C86.7708 26.6527 87.3693 25.1712 87.3693 23.45H85.3693ZM84.187 26.3689C83.4144 27.09 82.3304 27.5 80.8193 27.5V29.5C82.7082 29.5 84.3242 28.9766 85.5517 27.8311L84.187 26.3689ZM80.8193 27.5H68.3693V29.5H80.8193V27.5ZM69.3693 28.5V28H67.3693V28.5H69.3693ZM68.3693 29H80.8193V27H68.3693V29ZM80.8193 29C82.5388 29 84.0207 28.5282 85.1487 27.4838L83.7899 26.0162C83.118 26.6384 82.1665 27 80.8193 27V29ZM85.1498 27.4828C86.2974 26.4171 86.8693 25.0467 86.8693 23.45H84.8693C84.8693 24.5199 84.5079 25.3495 83.7889 26.0172L85.1498 27.4828ZM86.8693 23.45V20.55H84.8693V23.45H86.8693ZM86.8693 20.55C86.8693 18.9404 86.5943 17.5107 85.7264 16.6429L84.3122 18.0571C84.5777 18.3226 84.8693 19.0263 84.8693 20.55H86.8693ZM85.7668 16.6856C85.0668 15.8982 84.1298 15.4081 83.0289 15.1722L82.6098 17.1278C83.3755 17.2919 83.9052 17.6018 84.2719 18.0144L85.7668 16.6856ZM83.019 15.1701L72.469 13.0201L72.0697 14.9799L82.6196 17.1299L83.019 15.1701ZM72.4582 13.018C71.7372 12.8793 71.1926 12.6133 70.781 12.2502L69.4577 13.7498C70.1794 14.3867 71.0681 14.7873 72.0805 14.982L72.4582 13.018ZM70.8264 12.2929C70.5844 12.0509 70.3193 11.4475 70.3193 10.15H68.3193C68.3193 11.5858 68.5876 12.8825 69.4122 13.7071L70.8264 12.2929ZM70.3193 10.15V6.05H68.3193V10.15H70.3193ZM70.3193 6.05C70.3193 4.98042 70.6798 4.17592 71.3853 3.54594L70.0533 2.05406C68.8922 3.09074 68.3193 4.45291 68.3193 6.05H70.3193ZM71.3998 3.53279C72.1118 2.87163 73.084 2.5 74.4193 2.5V0.499997C72.688 0.499997 71.1935 0.995035 70.0389 2.06721L71.3998 3.53279ZM74.4193 2.5H85.5193V0.499997H74.4193V2.5ZM120.189 27.3L120.841 28.0581L120.851 28.0493L120.189 27.3ZM104.239 27.3L103.568 28.0416L103.578 28.0504L104.239 27.3ZM104.239 2.8L104.9 3.55042L104.91 3.54153L104.239 2.8ZM120.189 2.8L119.527 3.54939L119.537 3.55801L120.189 2.8ZM104.639 26.95L103.98 27.7026L103.986 27.7073L103.991 27.7119L104.639 26.95ZM119.789 26.95L120.427 27.7198L120.433 27.7152L120.438 27.7106L119.789 26.95ZM119.789 3.15L119.14 3.91056L119.145 3.9152L119.151 3.91976L119.789 3.15ZM104.639 3.15L105.287 3.91194L105.292 3.9073L105.297 3.90258L104.639 3.15ZM121.339 22.4C121.339 24.1282 120.734 25.4834 119.527 26.5507L120.851 28.0493C122.51 26.5832 123.339 24.6718 123.339 22.4H121.339ZM119.537 26.542C118.399 27.5212 116.062 28.15 112.189 28.15V30.15C116.115 30.15 119.112 29.5454 120.841 28.058L119.537 26.542ZM112.189 28.15C110.285 28.15 108.729 27.9989 107.503 27.7135C106.27 27.4267 105.432 27.0183 104.9 26.5496L103.578 28.0504C104.446 28.815 105.632 29.3316 107.05 29.6615C108.473 29.9928 110.192 30.15 112.189 30.15V28.15ZM104.91 26.5585C103.733 25.4937 103.139 24.1363 103.139 22.4H101.139C101.139 24.6637 101.945 26.573 103.568 28.0415L104.91 26.5585ZM103.139 22.4V7.65H101.139V22.4H103.139ZM103.139 7.65C103.139 5.91384 103.732 4.57895 104.9 3.55036L103.578 2.04964C101.945 3.48772 101.139 5.38615 101.139 7.65H103.139ZM104.91 3.54153C106.01 2.54644 108.314 1.9 112.189 1.9V-0.100001C108.263 -0.100001 105.268 0.52022 103.568 2.05846L104.91 3.54153ZM112.189 1.9C116.059 1.9 118.39 2.54472 119.527 3.54933L120.851 2.05067C119.121 0.521944 116.119 -0.100001 112.189 -0.100001V1.9ZM119.537 3.55801C120.735 4.58924 121.339 5.92212 121.339 7.65H123.339C123.339 5.37787 122.509 3.47742 120.841 2.04199L119.537 3.55801ZM121.339 7.65V22.4H123.339V7.65H121.339ZM101.639 22.4C101.639 24.5375 102.417 26.3348 103.98 27.7026L105.297 26.1974C104.194 25.2319 103.639 23.9959 103.639 22.4H101.639ZM103.991 27.7119C104.826 28.4213 105.96 28.8973 107.307 29.2006C108.661 29.5055 110.294 29.65 112.189 29.65V27.65C110.384 27.65 108.909 27.5112 107.746 27.2494C106.576 26.986 105.785 26.612 105.287 26.1881L103.991 27.7119ZM112.189 29.65C115.913 29.65 118.768 29.0958 120.427 27.7198L119.151 26.1802C118.077 27.0709 115.865 27.65 112.189 27.65V29.65ZM120.438 27.7106C122.037 26.3456 122.839 24.5463 122.839 22.4H120.839C120.839 23.9871 120.274 25.2211 119.14 26.1894L120.438 27.7106ZM122.839 22.4V7.65H120.839V22.4H122.839ZM122.839 7.65C122.839 5.50326 122.036 3.71448 120.427 2.38024L119.151 3.91976C120.275 4.85218 120.839 6.0634 120.839 7.65H122.839ZM120.438 2.38944C118.777 0.971523 115.916 0.399999 112.189 0.399999V2.4C115.862 2.4 118.067 2.99514 119.14 3.91056L120.438 2.38944ZM112.189 0.399999C110.293 0.399999 108.657 0.548886 107.301 0.863326C105.95 1.17631 104.815 1.66746 103.98 2.39742L105.297 3.90258C105.796 3.46587 106.586 3.08202 107.752 2.81167C108.912 2.54278 110.385 2.4 112.189 2.4V0.399999ZM103.991 2.38806C102.418 3.72536 101.639 5.51224 101.639 7.65H103.639C103.639 6.05442 104.193 4.8413 105.287 3.91194L103.991 2.38806ZM101.639 7.65V22.4H103.639V7.65H101.639ZM139.404 1.5V0.499997H138.404V1.5H139.404ZM139.904 1.5H140.904V0.499997H139.904V1.5ZM141.854 26.9L141.186 27.6442L141.196 27.6532L141.206 27.6619L141.854 26.9ZM156.954 26.9L157.602 27.6619L157.607 27.6573L157.613 27.6526L156.954 26.9ZM158.954 1.5V0.499997H157.954V1.5H158.954ZM159.454 1.5H160.454V0.499997H159.454V1.5ZM157.354 27.25L158.015 28.0004L158.025 27.9915L157.354 27.25ZM141.454 27.25L140.774 27.9834L140.784 27.992L140.793 28.0004L141.454 27.25ZM139.404 2.5H139.904V0.499997H139.404V2.5ZM138.904 1.5V22.35H140.904V1.5H138.904ZM138.904 22.35C138.904 24.4787 139.659 26.2737 141.186 27.6442L142.522 26.1558C141.449 25.193 140.904 23.9547 140.904 22.35H138.904ZM141.206 27.6619C142.041 28.3713 143.175 28.8473 144.522 29.1506C145.876 29.4555 147.509 29.6 149.404 29.6V27.6C147.599 27.6 146.124 27.4612 144.961 27.1994C143.792 26.936 143.001 26.562 142.502 26.1381L141.206 27.6619ZM149.404 29.6C151.299 29.6 152.932 29.4555 154.286 29.1506C155.633 28.8473 156.767 28.3713 157.602 27.6619L156.306 26.1381C155.808 26.562 155.017 26.936 153.847 27.1994C152.684 27.4612 151.209 27.6 149.404 27.6V29.6ZM157.613 27.6526C159.176 26.2848 159.954 24.4875 159.954 22.35H157.954C157.954 23.9459 157.399 25.1819 156.296 26.1474L157.613 27.6526ZM159.954 22.35V1.5H157.954V22.35H159.954ZM158.954 2.5H159.454V0.499997H158.954V2.5ZM158.454 1.5V22.35H160.454V1.5H158.454ZM158.454 22.35C158.454 24.0863 157.86 25.4437 156.683 26.5085L158.025 27.9915C159.648 26.523 160.454 24.6137 160.454 22.35H158.454ZM156.693 26.4996C156.161 26.9683 155.323 27.3767 154.09 27.6635C152.864 27.9489 151.308 28.1 149.404 28.1V30.1C151.401 30.1 153.12 29.9428 154.543 29.6115C155.961 29.2816 157.147 28.765 158.015 28.0004L156.693 26.4996ZM149.404 28.1C147.501 28.1 145.945 27.9489 144.718 27.6635C143.486 27.3767 142.647 26.9683 142.115 26.4996L140.793 28.0004C141.661 28.765 142.848 29.2816 144.265 29.6115C145.689 29.9428 147.408 30.1 149.404 30.1V28.1ZM142.134 26.5166C140.988 25.4541 140.404 24.0945 140.404 22.35H138.404C138.404 24.6055 139.187 26.5125 140.774 27.9834L142.134 26.5166ZM140.404 22.35V1.5H138.404V22.35H140.404ZM177.359 2V1H176.359V2H177.359ZM177.359 16.45H176.359V17.45H177.359V16.45ZM192.409 14.95L193.228 15.5235L192.409 14.95ZM192.159 3.45L191.401 4.10294L191.408 4.1103L191.414 4.11754L192.159 3.45ZM177.359 28.5V29.5H178.359V28.5H177.359ZM176.859 28.5H175.859V29.5H176.859V28.5ZM176.859 1.5V0.499997H175.859V1.5H176.859ZM192.559 3.15L191.796 3.79698L191.801 3.80278L191.806 3.80851L192.559 3.15ZM193.359 14.45L194.283 14.8324L194.287 14.8214L193.359 14.45ZM190.959 16.45L190.667 15.4936L190.959 17.45V16.45ZM196.059 17.85L195.376 18.5811L195.383 18.5872L195.39 18.5933L196.059 17.85ZM197.559 28.5V29.5H198.559V28.5H197.559ZM197.059 28.5H196.059V29.5H197.059V28.5ZM195.709 18.15L195.029 18.8838L195.037 18.8907L195.044 18.8974L195.709 18.15ZM177.359 16.9V15.9H176.359V16.9H177.359ZM188.259 1H177.359V3H188.259V1ZM176.359 2V16.45H178.359V2H176.359ZM177.359 17.45H188.259V15.45H177.359V17.45ZM188.259 17.45C190.427 17.45 192.241 16.9334 193.228 15.5235L191.59 14.3765C191.177 14.9666 190.224 15.45 188.259 15.45V17.45ZM193.228 15.5235C194.091 14.2903 194.459 12.6414 194.459 10.7H192.459C192.459 12.4252 192.126 13.6097 191.59 14.3765L193.228 15.5235ZM194.459 10.7V7.2H192.459V10.7H194.459ZM194.459 7.2C194.459 5.46748 193.964 3.96491 192.903 2.78245L191.414 4.11754C192.087 4.86842 192.459 5.86585 192.459 7.2H194.459ZM192.916 2.79706C191.828 1.53481 190.2 1 188.259 1V3C189.851 3 190.823 3.43186 191.401 4.10294L192.916 2.79706ZM177.359 27.5H176.859V29.5H177.359V27.5ZM177.859 28.5V1.5H175.859V28.5H177.859ZM176.859 2.5H188.259V0.499997H176.859V2.5ZM188.259 2.5C190.004 2.5 191.112 2.99067 191.796 3.79698L193.321 2.50302C192.139 1.10932 190.38 0.499997 188.259 0.499997V2.5ZM191.806 3.80851C192.556 4.66538 192.959 5.76967 192.959 7.2H194.959C194.959 5.36366 194.428 3.76795 193.311 2.4915L191.806 3.80851ZM192.959 7.2V10.65H194.959V7.2H192.959ZM192.959 10.65C192.959 12.1058 192.768 13.2354 192.43 14.0786L194.287 14.8214C194.75 13.6646 194.959 12.2609 194.959 10.65H192.959ZM192.435 14.0676C192.172 14.7026 191.644 15.1951 190.667 15.4936L191.251 17.4064C192.674 16.9716 193.746 16.1307 194.283 14.8323L192.435 14.0676ZM190.959 17.45H191.509V15.45H190.959V17.45ZM191.509 17.45C193.41 17.45 194.634 17.8884 195.376 18.5811L196.741 17.1189C195.483 15.9449 193.674 15.45 191.509 15.45V17.45ZM195.39 18.5933C196.122 19.2524 196.559 20.2632 196.559 21.8H198.559C198.559 19.8701 197.995 18.2476 196.728 17.1067L195.39 18.5933ZM196.559 21.8V28.5H198.559V21.8H196.559ZM197.559 27.5H197.059V29.5H197.559V27.5ZM198.059 28.5V21.8H196.059V28.5H198.059ZM198.059 21.8C198.059 19.9876 197.555 18.4532 196.373 17.4026L195.044 18.8974C195.663 19.4468 196.059 20.3458 196.059 21.8H198.059ZM196.388 17.4162C195.224 16.3387 193.527 15.9 191.509 15.9V17.9C193.29 17.9 194.393 18.2946 195.029 18.8838L196.388 17.4162ZM191.509 15.9H177.359V17.9H191.509V15.9ZM176.359 16.9V28.5H178.359V16.9H176.359ZM229.573 28H230.573V27H229.573V28ZM229.573 28.5V29.5H230.573V28.5H229.573ZM214.773 27L214.077 27.7186L214.083 27.7241L214.089 27.7295L214.773 27ZM214.823 3L215.507 3.72954V3.72954L214.823 3ZM229.573 1.5H230.573V0.499997H229.573V1.5ZM229.573 2V3H230.573V2H229.573ZM215.273 3.4L215.93 4.15408L215.936 4.14815L215.943 4.1421L215.273 3.4ZM215.223 26.65L214.554 27.3933L215.223 26.65ZM228.573 28V28.5H230.573V28H228.573ZM229.573 27.5H221.223V29.5H229.573V27.5ZM221.223 27.5C219.651 27.5 218.387 27.3778 217.412 27.151C216.428 26.9221 215.813 26.604 215.457 26.2705L214.089 27.7295C214.8 28.396 215.793 28.8279 216.959 29.099C218.134 29.3722 219.562 29.5 221.223 29.5V27.5ZM215.468 26.2814C214.719 25.5565 214.223 24.2362 214.223 22.05H212.223C212.223 24.4638 212.76 26.4435 214.077 27.7186L215.468 26.2814ZM214.223 22.05V8.05H212.223V22.05H214.223ZM214.223 8.05C214.223 5.79436 214.737 4.45122 215.507 3.72954L214.139 2.27046C212.775 3.54878 212.223 5.57231 212.223 8.05H214.223ZM215.507 3.72954C215.864 3.39476 216.476 3.07708 217.451 2.84861C218.417 2.62215 219.668 2.5 221.223 2.5V0.499997C219.578 0.499997 218.162 0.627845 216.995 0.901381C215.836 1.17292 214.848 1.60524 214.139 2.27046L215.507 3.72954ZM221.223 2.5H229.573V0.499997H221.223V2.5ZM228.573 1.5V2H230.573V1.5H228.573ZM229.573 1H221.223V3H229.573V1ZM221.223 1C219.71 1 218.398 1.11974 217.306 1.37658C216.221 1.63189 215.289 2.03774 214.603 2.6579L215.943 4.1421C216.29 3.82893 216.866 3.53477 217.764 3.32342C218.656 3.1136 219.803 3 221.223 3V1ZM214.616 2.64592C213.262 3.82531 212.723 5.73278 212.723 8.05H214.723C214.723 5.96722 215.217 4.77469 215.93 4.15408L214.616 2.64592ZM212.723 8.05V22.05H214.723V8.05H212.723ZM212.723 22.05C212.723 24.3313 213.244 26.2143 214.554 27.3933L215.892 25.9067C215.202 25.2857 214.723 24.102 214.723 22.05H212.723ZM214.554 27.3933C215.231 28.0028 216.167 28.3936 217.253 28.6381C218.35 28.8849 219.68 29 221.223 29V27C219.766 27 218.596 26.8901 217.692 26.6869C216.779 26.4814 216.215 26.1972 215.892 25.9067L214.554 27.3933ZM221.223 29H229.573V27H221.223V29ZM262.069 28H263.069V27H262.069V28ZM262.069 28.5V29.5H263.069V28.5H262.069ZM245.219 28.5H244.219V29.5H245.219V28.5ZM245.219 1.5V0.499997H244.219V1.5H245.219ZM262.069 1.5H263.069V0.499997H262.069V1.5ZM262.069 2V3H263.069V2H262.069ZM245.719 2V1H244.719V2H245.719ZM245.719 14.55H244.719V15.55H245.719V14.55ZM258.019 14.55H259.019V13.55H258.019V14.55ZM258.019 15.05V16.05H259.019V15.05H258.019ZM245.719 15.05V14.05H244.719V15.05H245.719ZM245.719 28H244.719V29H245.719V28ZM261.069 28V28.5H263.069V28H261.069ZM262.069 27.5H245.219V29.5H262.069V27.5ZM246.219 28.5V1.5H244.219V28.5H246.219ZM245.219 2.5H262.069V0.499997H245.219V2.5ZM261.069 1.5V2H263.069V1.5H261.069ZM262.069 1H245.719V3H262.069V1ZM244.719 2V14.55H246.719V2H244.719ZM245.719 15.55H258.019V13.55H245.719V15.55ZM257.019 14.55V15.05H259.019V14.55H257.019ZM258.019 14.05H245.719V16.05H258.019V14.05ZM244.719 15.05V28H246.719V15.05H244.719ZM245.719 29H262.069V27H245.719V29ZM293.234 1.5H294.234V0.499997H293.234V1.5ZM293.234 2V3H294.234V2H293.234ZM278.234 12.6L278.941 11.8929V11.8929L278.234 12.6ZM280.084 13.5L280.284 12.5201L280.27 12.5173L280.256 12.5148L280.084 13.5ZM290.634 15.65L290.434 16.6299L290.438 16.6306L290.634 15.65ZM293.084 16.95L292.359 17.6388L292.368 17.648L292.377 17.6571L293.084 16.95ZM292.584 27.1L293.267 27.8311L293.273 27.8251L293.279 27.819L292.584 27.1ZM276.084 28.5H275.084V29.5H276.084V28.5ZM276.084 28V27H275.084V28H276.084ZM292.184 26.75L292.864 27.4838L292.865 27.4828L292.184 26.75ZM292.734 17.35L291.987 18.0144L292.006 18.0363L292.027 18.0571L292.734 17.35ZM290.534 16.15L290.744 15.1721L290.734 15.1701L290.534 16.15ZM279.984 14L280.184 13.0201L280.173 13.018L279.984 14ZM277.834 13L277.127 13.7071L277.149 13.7292L277.173 13.7498L277.834 13ZM278.434 2.8L279.1 3.54594L279.107 3.53943L279.115 3.53279L278.434 2.8ZM292.234 1.5V2H294.234V1.5H292.234ZM293.234 1H282.134V3H293.234V1ZM282.134 1C280.545 1 279.166 1.43978 278.107 2.41407L279.461 3.88593C280.069 3.32688 280.923 3 282.134 3V1ZM278.107 2.41407C277.061 3.3765 276.534 4.61326 276.534 6.05H278.534C278.534 5.1534 278.841 4.45683 279.461 3.88593L278.107 2.41407ZM276.534 6.05V10.15H278.534V6.05H276.534ZM276.534 10.15C276.534 11.3944 276.772 12.5525 277.527 13.3071L278.941 11.8929C278.763 11.7141 278.534 11.239 278.534 10.15H276.534ZM277.527 13.3071C278.164 13.9441 278.981 14.3231 279.913 14.4852L280.256 12.5148C279.655 12.4103 279.238 12.1892 278.941 11.8929L277.527 13.3071ZM279.884 14.4799L290.434 16.6299L290.834 14.6701L280.284 12.5201L279.884 14.4799ZM290.438 16.6306C291.259 16.7948 291.883 17.1377 292.359 17.6388L293.809 16.2612C293.018 15.4289 292.009 14.9052 290.83 14.6694L290.438 16.6306ZM292.377 17.6571C292.75 18.0305 293.084 18.8808 293.084 20.55H295.084C295.084 18.7525 294.751 17.2028 293.791 16.2429L292.377 17.6571ZM293.084 20.55V23.45H295.084V20.55H293.084ZM293.084 23.45C293.084 24.6621 292.683 25.6139 291.889 26.381L293.279 27.819C294.486 26.6527 295.084 25.1712 295.084 23.45H293.084ZM291.902 26.3689C291.129 27.09 290.045 27.5 288.534 27.5V29.5C290.423 29.5 292.039 28.9766 293.267 27.8311L291.902 26.3689ZM288.534 27.5H276.084V29.5H288.534V27.5ZM277.084 28.5V28H275.084V28.5H277.084ZM276.084 29H288.534V27H276.084V29ZM288.534 29C290.254 29 291.736 28.5282 292.864 27.4838L291.505 26.0162C290.833 26.6384 289.881 27 288.534 27V29ZM292.865 27.4828C294.012 26.4171 294.584 25.0467 294.584 23.45H292.584C292.584 24.5199 292.223 25.3495 291.504 26.0172L292.865 27.4828ZM294.584 23.45V20.55H292.584V23.45H294.584ZM294.584 20.55C294.584 18.9404 294.309 17.5107 293.441 16.6429L292.027 18.0571C292.293 18.3226 292.584 19.0263 292.584 20.55H294.584ZM293.482 16.6856C292.782 15.8982 291.845 15.4081 290.744 15.1722L290.325 17.1278C291.09 17.2919 291.62 17.6018 291.987 18.0144L293.482 16.6856ZM290.734 15.1701L280.184 13.0201L279.784 14.9799L290.335 17.1299L290.734 15.1701ZM280.173 13.018C279.452 12.8793 278.907 12.6133 278.496 12.2502L277.173 13.7498C277.894 14.3867 278.783 14.7873 279.795 14.982L280.173 13.018ZM278.541 12.2929C278.299 12.0509 278.034 11.4475 278.034 10.15H276.034C276.034 11.5858 276.302 12.8825 277.127 13.7071L278.541 12.2929ZM278.034 10.15V6.05H276.034V10.15H278.034ZM278.034 6.05C278.034 4.98042 278.395 4.17592 279.1 3.54594L277.768 2.05406C276.607 3.09074 276.034 4.45291 276.034 6.05H278.034ZM279.115 3.53279C279.827 2.87163 280.799 2.5 282.134 2.5V0.499997C280.403 0.499997 278.908 0.995035 277.754 2.06721L279.115 3.53279ZM282.134 2.5H293.234V0.499997H282.134V2.5Z" fill="black" mask="url(#path-1-outside-1_183_468)"/>
</svg>
