<svg width="456" height="30" viewBox="0 0 456 30" fill="none" xmlns="http://www.w3.org/2000/svg">
<mask id="path-1-outside-1_140_562" maskUnits="userSpaceOnUse" x="-1" y="-1" width="458" height="32" fill="black">
<rect fill="white" x="-1" y="-1" width="458" height="32"/>
<path d="M1.30762 17.85V19.4H20.8076V17.85C20.8076 16.95 20.7243 16.1167 20.5576 15.35C20.4243 14.5833 20.241 13.8667 20.0076 13.2L16.5576 5.05C16.191 4.18333 15.8076 3.46666 15.4076 2.9C15.0076 2.3 14.341 2 13.4076 2H8.50762C7.50762 2 6.80762 2.3 6.40762 2.9C6.00762 3.46666 5.64095 4.16667 5.30762 5L2.10762 13.2C1.87428 13.8667 1.67428 14.5833 1.50762 15.35C1.37428 16.1167 1.30762 16.95 1.30762 17.85ZM20.8076 28.5V19.9H1.30762V28.5H0.807618V17.85C0.807618 16.9167 0.874284 16.0667 1.00762 15.3C1.17428 14.5 1.39095 13.7333 1.65762 13L4.85762 4.8C5.22428 3.86667 5.64095 3.08333 6.10762 2.45C6.57428 1.81666 7.37428 1.5 8.50762 1.5H13.4076C14.5076 1.5 15.2743 1.81666 15.7076 2.45C16.1743 3.08333 16.6076 3.88333 17.0076 4.85L20.4576 13C20.7243 13.7333 20.9243 14.5 21.0576 15.3C21.2243 16.0667 21.3076 16.9167 21.3076 17.85V28.5H20.8076ZM51.7811 28.5H38.3311V1.5H48.4811C49.8477 1.5 50.9644 1.65 51.8311 1.95C52.6977 2.21666 53.3644 2.6 53.8311 3.1C54.2977 3.56666 54.6144 4.11667 54.7811 4.75C54.9477 5.38333 55.0311 6.06667 55.0311 6.8V10C55.0311 11 54.8477 11.9167 54.4811 12.75C54.1477 13.5833 53.2644 14.1833 51.8311 14.55C53.1977 14.55 54.3144 14.7 55.1811 15C56.0477 15.2667 56.7144 15.6667 57.1811 16.2C57.6477 16.7 57.9477 17.3 58.0811 18C58.2477 18.7 58.3311 19.4667 58.3311 20.3V23.5C58.3311 24.2333 58.2477 24.9167 58.0811 25.55C57.9144 26.15 57.5977 26.6667 57.1311 27.1C56.6977 27.5333 56.0477 27.8833 55.1811 28.15C54.3144 28.3833 53.1811 28.5 51.7811 28.5ZM48.4811 2H38.8311V14.55H48.4811C49.8477 14.55 50.9311 14.4333 51.7311 14.2C52.5311 13.9333 53.1311 13.6 53.5311 13.2C53.9644 12.7667 54.2311 12.2833 54.3311 11.75C54.4644 11.1833 54.5311 10.6 54.5311 10V6.8C54.5311 5.46667 54.1477 4.33333 53.3811 3.4C52.6144 2.46667 50.9811 2 48.4811 2ZM51.8311 15.05H38.8311V28H51.7811C54.2811 28 55.9144 27.6 56.6811 26.8C57.4477 25.9667 57.8311 24.8667 57.8311 23.5V20.3C57.8311 18.8 57.4477 17.55 56.6811 16.55C55.9477 15.55 54.3311 15.05 51.8311 15.05ZM94.0615 22.4C94.0615 24.4 93.3449 26.0333 91.9115 27.3C90.4782 28.5333 87.8115 29.15 83.9115 29.15C80.0115 29.15 77.3615 28.5333 75.9615 27.3C74.5615 26.0333 73.8615 24.4 73.8615 22.4V7.65C73.8615 5.65 74.5615 4.03333 75.9615 2.8C77.3615 1.53333 80.0115 0.899999 83.9115 0.899999C87.8115 0.899999 90.4782 1.53333 91.9115 2.8C93.3449 4.03333 94.0615 5.65 94.0615 7.65V22.4ZM74.3615 22.4C74.3615 24.2667 75.0282 25.7833 76.3615 26.95C77.6949 28.0833 80.2115 28.65 83.9115 28.65C87.6115 28.65 90.1449 28.0833 91.5115 26.95C92.8782 25.7833 93.5615 24.2667 93.5615 22.4V7.65C93.5615 5.78333 92.8782 4.28333 91.5115 3.15C90.1449 1.98333 87.6115 1.4 83.9115 1.4C80.2115 1.4 77.6949 1.98333 76.3615 3.15C75.0282 4.28333 74.3615 5.78333 74.3615 7.65V22.4ZM111.127 1.5H111.627V22.35C111.627 24.2167 112.277 25.7333 113.577 26.9C114.91 28.0333 117.427 28.6 121.127 28.6C124.827 28.6 127.343 28.0333 128.677 26.9C130.01 25.7333 130.677 24.2167 130.677 22.35V1.5H131.177V22.35C131.177 24.35 130.477 25.9833 129.077 27.25C127.677 28.4833 125.027 29.1 121.127 29.1C117.227 29.1 114.577 28.4833 113.177 27.25C111.81 25.9833 111.127 24.35 111.127 22.35V1.5ZM155.881 28.5V2H145.631V1.5H166.631V2H156.381V28.5H155.881ZM198.948 28.5V2H188.698V1.5H209.698V2H199.448V28.5H198.948ZM224.46 28.5V1.5H224.96V14.75H244.16V1.5H244.66V28.5H244.16V15.25H224.96V28.5H224.46ZM279.3 28V28.5H262.45V1.5H279.3V2H262.95V14.55H275.25V15.05H262.95V28H279.3ZM313.157 28.5V2H302.907V1.5H323.907V2H313.657V28.5H313.157ZM358.075 22.4C358.075 24.4 357.359 26.0333 355.925 27.3C354.492 28.5333 351.825 29.15 347.925 29.15C344.025 29.15 341.375 28.5333 339.975 27.3C338.575 26.0333 337.875 24.4 337.875 22.4V7.65C337.875 5.65 338.575 4.03333 339.975 2.8C341.375 1.53333 344.025 0.899999 347.925 0.899999C351.825 0.899999 354.492 1.53333 355.925 2.8C357.359 4.03333 358.075 5.65 358.075 7.65V22.4ZM338.375 22.4C338.375 24.2667 339.042 25.7833 340.375 26.95C341.709 28.0833 344.225 28.65 347.925 28.65C351.625 28.65 354.159 28.0833 355.525 26.95C356.892 25.7833 357.575 24.2667 357.575 22.4V7.65C357.575 5.78333 356.892 4.28333 355.525 3.15C354.159 1.98333 351.625 1.4 347.925 1.4C344.225 1.4 341.709 1.98333 340.375 3.15C339.042 4.28333 338.375 5.78333 338.375 7.65V22.4ZM386.29 18.65H375.99V28.5H375.49V1.5H386.29C387.857 1.5 389.124 1.68333 390.09 2.05C391.09 2.38333 391.857 2.85 392.39 3.45C392.924 4.05 393.29 4.76667 393.49 5.6C393.69 6.43333 393.79 7.33333 393.79 8.3V12C393.79 12.9667 393.69 13.8667 393.49 14.7C393.29 15.5 392.924 16.2 392.39 16.8C391.857 17.3667 391.09 17.8167 390.09 18.15C389.124 18.4833 387.857 18.65 386.29 18.65ZM375.99 18.15H386.29C387.757 18.15 388.94 18 389.84 17.7C390.774 17.4 391.49 16.9833 391.99 16.45C392.49 15.8833 392.824 15.2333 392.99 14.5C393.19 13.7333 393.29 12.9 393.29 12V8.3C393.29 7.4 393.19 6.56667 392.99 5.8C392.824 5.03333 392.49 4.36666 391.99 3.8C391.49 3.23333 390.774 2.8 389.84 2.5C388.94 2.16667 387.757 2 386.29 2H375.99V18.15ZM423.572 28.5H407.672V28H415.422V2H407.672V1.5H423.572V2H415.922V28H423.572V28.5ZM455.446 28V28.5H447.096C443.863 28.5 441.713 28 440.646 27C439.613 26 439.096 24.35 439.096 22.05V8.05C439.096 5.68333 439.629 4 440.696 3C441.763 2 443.896 1.5 447.096 1.5H455.446V2H447.096C444.163 2 442.179 2.46667 441.146 3.4C440.113 4.3 439.596 5.85 439.596 8.05V22.05C439.596 24.2167 440.096 25.75 441.096 26.65C442.096 27.55 444.096 28 447.096 28H455.446Z"/>
</mask>
<path d="M1.30762 17.85V19.4H20.8076V17.85C20.8076 16.95 20.7243 16.1167 20.5576 15.35C20.4243 14.5833 20.241 13.8667 20.0076 13.2L16.5576 5.05C16.191 4.18333 15.8076 3.46666 15.4076 2.9C15.0076 2.3 14.341 2 13.4076 2H8.50762C7.50762 2 6.80762 2.3 6.40762 2.9C6.00762 3.46666 5.64095 4.16667 5.30762 5L2.10762 13.2C1.87428 13.8667 1.67428 14.5833 1.50762 15.35C1.37428 16.1167 1.30762 16.95 1.30762 17.85ZM20.8076 28.5V19.9H1.30762V28.5H0.807618V17.85C0.807618 16.9167 0.874284 16.0667 1.00762 15.3C1.17428 14.5 1.39095 13.7333 1.65762 13L4.85762 4.8C5.22428 3.86667 5.64095 3.08333 6.10762 2.45C6.57428 1.81666 7.37428 1.5 8.50762 1.5H13.4076C14.5076 1.5 15.2743 1.81666 15.7076 2.45C16.1743 3.08333 16.6076 3.88333 17.0076 4.85L20.4576 13C20.7243 13.7333 20.9243 14.5 21.0576 15.3C21.2243 16.0667 21.3076 16.9167 21.3076 17.85V28.5H20.8076ZM51.7811 28.5H38.3311V1.5H48.4811C49.8477 1.5 50.9644 1.65 51.8311 1.95C52.6977 2.21666 53.3644 2.6 53.8311 3.1C54.2977 3.56666 54.6144 4.11667 54.7811 4.75C54.9477 5.38333 55.0311 6.06667 55.0311 6.8V10C55.0311 11 54.8477 11.9167 54.4811 12.75C54.1477 13.5833 53.2644 14.1833 51.8311 14.55C53.1977 14.55 54.3144 14.7 55.1811 15C56.0477 15.2667 56.7144 15.6667 57.1811 16.2C57.6477 16.7 57.9477 17.3 58.0811 18C58.2477 18.7 58.3311 19.4667 58.3311 20.3V23.5C58.3311 24.2333 58.2477 24.9167 58.0811 25.55C57.9144 26.15 57.5977 26.6667 57.1311 27.1C56.6977 27.5333 56.0477 27.8833 55.1811 28.15C54.3144 28.3833 53.1811 28.5 51.7811 28.5ZM48.4811 2H38.8311V14.55H48.4811C49.8477 14.55 50.9311 14.4333 51.7311 14.2C52.5311 13.9333 53.1311 13.6 53.5311 13.2C53.9644 12.7667 54.2311 12.2833 54.3311 11.75C54.4644 11.1833 54.5311 10.6 54.5311 10V6.8C54.5311 5.46667 54.1477 4.33333 53.3811 3.4C52.6144 2.46667 50.9811 2 48.4811 2ZM51.8311 15.05H38.8311V28H51.7811C54.2811 28 55.9144 27.6 56.6811 26.8C57.4477 25.9667 57.8311 24.8667 57.8311 23.5V20.3C57.8311 18.8 57.4477 17.55 56.6811 16.55C55.9477 15.55 54.3311 15.05 51.8311 15.05ZM94.0615 22.4C94.0615 24.4 93.3449 26.0333 91.9115 27.3C90.4782 28.5333 87.8115 29.15 83.9115 29.15C80.0115 29.15 77.3615 28.5333 75.9615 27.3C74.5615 26.0333 73.8615 24.4 73.8615 22.4V7.65C73.8615 5.65 74.5615 4.03333 75.9615 2.8C77.3615 1.53333 80.0115 0.899999 83.9115 0.899999C87.8115 0.899999 90.4782 1.53333 91.9115 2.8C93.3449 4.03333 94.0615 5.65 94.0615 7.65V22.4ZM74.3615 22.4C74.3615 24.2667 75.0282 25.7833 76.3615 26.95C77.6949 28.0833 80.2115 28.65 83.9115 28.65C87.6115 28.65 90.1449 28.0833 91.5115 26.95C92.8782 25.7833 93.5615 24.2667 93.5615 22.4V7.65C93.5615 5.78333 92.8782 4.28333 91.5115 3.15C90.1449 1.98333 87.6115 1.4 83.9115 1.4C80.2115 1.4 77.6949 1.98333 76.3615 3.15C75.0282 4.28333 74.3615 5.78333 74.3615 7.65V22.4ZM111.127 1.5H111.627V22.35C111.627 24.2167 112.277 25.7333 113.577 26.9C114.91 28.0333 117.427 28.6 121.127 28.6C124.827 28.6 127.343 28.0333 128.677 26.9C130.01 25.7333 130.677 24.2167 130.677 22.35V1.5H131.177V22.35C131.177 24.35 130.477 25.9833 129.077 27.25C127.677 28.4833 125.027 29.1 121.127 29.1C117.227 29.1 114.577 28.4833 113.177 27.25C111.81 25.9833 111.127 24.35 111.127 22.35V1.5ZM155.881 28.5V2H145.631V1.5H166.631V2H156.381V28.5H155.881ZM198.948 28.5V2H188.698V1.5H209.698V2H199.448V28.5H198.948ZM224.46 28.5V1.5H224.96V14.75H244.16V1.5H244.66V28.5H244.16V15.25H224.96V28.5H224.46ZM279.3 28V28.5H262.45V1.5H279.3V2H262.95V14.55H275.25V15.05H262.95V28H279.3ZM313.157 28.5V2H302.907V1.5H323.907V2H313.657V28.5H313.157ZM358.075 22.4C358.075 24.4 357.359 26.0333 355.925 27.3C354.492 28.5333 351.825 29.15 347.925 29.15C344.025 29.15 341.375 28.5333 339.975 27.3C338.575 26.0333 337.875 24.4 337.875 22.4V7.65C337.875 5.65 338.575 4.03333 339.975 2.8C341.375 1.53333 344.025 0.899999 347.925 0.899999C351.825 0.899999 354.492 1.53333 355.925 2.8C357.359 4.03333 358.075 5.65 358.075 7.65V22.4ZM338.375 22.4C338.375 24.2667 339.042 25.7833 340.375 26.95C341.709 28.0833 344.225 28.65 347.925 28.65C351.625 28.65 354.159 28.0833 355.525 26.95C356.892 25.7833 357.575 24.2667 357.575 22.4V7.65C357.575 5.78333 356.892 4.28333 355.525 3.15C354.159 1.98333 351.625 1.4 347.925 1.4C344.225 1.4 341.709 1.98333 340.375 3.15C339.042 4.28333 338.375 5.78333 338.375 7.65V22.4ZM386.29 18.65H375.99V28.5H375.49V1.5H386.29C387.857 1.5 389.124 1.68333 390.09 2.05C391.09 2.38333 391.857 2.85 392.39 3.45C392.924 4.05 393.29 4.76667 393.49 5.6C393.69 6.43333 393.79 7.33333 393.79 8.3V12C393.79 12.9667 393.69 13.8667 393.49 14.7C393.29 15.5 392.924 16.2 392.39 16.8C391.857 17.3667 391.09 17.8167 390.09 18.15C389.124 18.4833 387.857 18.65 386.29 18.65ZM375.99 18.15H386.29C387.757 18.15 388.94 18 389.84 17.7C390.774 17.4 391.49 16.9833 391.99 16.45C392.49 15.8833 392.824 15.2333 392.99 14.5C393.19 13.7333 393.29 12.9 393.29 12V8.3C393.29 7.4 393.19 6.56667 392.99 5.8C392.824 5.03333 392.49 4.36666 391.99 3.8C391.49 3.23333 390.774 2.8 389.84 2.5C388.94 2.16667 387.757 2 386.29 2H375.99V18.15ZM423.572 28.5H407.672V28H415.422V2H407.672V1.5H423.572V2H415.922V28H423.572V28.5ZM455.446 28V28.5H447.096C443.863 28.5 441.713 28 440.646 27C439.613 26 439.096 24.35 439.096 22.05V8.05C439.096 5.68333 439.629 4 440.696 3C441.763 2 443.896 1.5 447.096 1.5H455.446V2H447.096C444.163 2 442.179 2.46667 441.146 3.4C440.113 4.3 439.596 5.85 439.596 8.05V22.05C439.596 24.2167 440.096 25.75 441.096 26.65C442.096 27.55 444.096 28 447.096 28H455.446Z" fill="#FEFFE4"/>
<path d="M1.30762 19.4H0.307617V20.4H1.30762V19.4ZM20.8076 19.4V20.4H21.8076V19.4H20.8076ZM20.5576 15.35L19.5724 15.5213L19.576 15.542L19.5804 15.5624L20.5576 15.35ZM20.0076 13.2L20.9515 12.8696L20.9409 12.8395L20.9285 12.8102L20.0076 13.2ZM16.5576 5.05L15.6367 5.43964L15.6367 5.43982L16.5576 5.05ZM15.4076 2.9L14.5756 3.4547L14.583 3.46579L14.5906 3.47668L15.4076 2.9ZM6.40762 2.9L7.22459 3.47668L7.23227 3.46579L7.23967 3.4547L6.40762 2.9ZM5.30762 5L4.37911 4.6286L4.37604 4.63646L5.30762 5ZM2.10762 13.2L1.17604 12.8365L1.16961 12.8529L1.16376 12.8696L2.10762 13.2ZM1.50762 15.35L0.530441 15.1376L0.525993 15.158L0.522406 15.1787L1.50762 15.35ZM20.8076 28.5H19.8076V29.5H20.8076V28.5ZM20.8076 19.9H21.8076V18.9H20.8076V19.9ZM1.30762 19.9V18.9H0.307617V19.9H1.30762ZM1.30762 28.5V29.5H2.30762V28.5H1.30762ZM0.807617 28.5H-0.192383V29.5H0.807617V28.5ZM1.00762 15.3L0.0286369 15.096L0.0252514 15.1123L0.0224056 15.1287L1.00762 15.3ZM1.65762 13L0.72604 12.6365L0.721806 12.6473L0.717823 12.6583L1.65762 13ZM4.85762 4.8L3.92686 4.43435L3.92604 4.43646L4.85762 4.8ZM6.10762 2.45L6.91267 3.0432V3.0432L6.10762 2.45ZM15.7076 2.45L14.8823 3.01468L14.8922 3.02912L14.9026 3.0432L15.7076 2.45ZM17.0076 4.85L16.0836 5.23236L16.0867 5.23982L17.0076 4.85ZM20.4576 13L21.3974 12.6583L21.3886 12.634L21.3785 12.6102L20.4576 13ZM21.0576 15.3L20.0712 15.4644L20.0752 15.4885L20.0804 15.5124L21.0576 15.3ZM21.3076 28.5V29.5H22.3076V28.5H21.3076ZM0.307617 17.85V19.4H2.30762V17.85H0.307617ZM1.30762 20.4H20.8076V18.4H1.30762V20.4ZM21.8076 19.4V17.85H19.8076V19.4H21.8076ZM21.8076 17.85C21.8076 16.8888 21.7187 15.9833 21.5348 15.1376L19.5804 15.5624C19.7299 16.25 19.8076 17.0112 19.8076 17.85H21.8076ZM21.5428 15.1787C21.401 14.3633 21.2047 13.593 20.9515 12.8696L19.0638 13.5303C19.2772 14.1403 19.4475 14.8033 19.5724 15.5213L21.5428 15.1787ZM20.9285 12.8102L17.4785 4.66018L15.6367 5.43982L19.0867 13.5898L20.9285 12.8102ZM17.4786 4.66036C17.0932 3.74944 16.6775 2.96492 16.2246 2.32331L14.5906 3.47668C14.9377 3.9684 15.2887 4.61722 15.6367 5.43964L17.4786 4.66036ZM16.2397 2.3453C15.6004 1.38644 14.5651 1 13.4076 1V3C14.1168 3 14.4148 3.21356 14.5756 3.4547L16.2397 2.3453ZM13.4076 1H8.50762V3H13.4076V1ZM8.50762 1C7.31449 1 6.22765 1.36718 5.57557 2.3453L7.23967 3.4547C7.38759 3.23282 7.70075 3 8.50762 3V1ZM5.59065 2.32331C5.13467 2.96929 4.7335 3.74271 4.37914 4.62861L6.23609 5.37139C6.5484 4.59062 6.88057 3.96404 7.22459 3.47668L5.59065 2.32331ZM4.37604 4.63646L1.17604 12.8365L3.03919 13.5635L6.23919 5.36354L4.37604 4.63646ZM1.16376 12.8696C0.915535 13.5789 0.704855 14.3353 0.530441 15.1376L2.48479 15.5624C2.64371 14.8314 2.83303 14.1545 3.05148 13.5303L1.16376 12.8696ZM0.522406 15.1787C0.377848 16.0099 0.307617 16.9013 0.307617 17.85H2.30762C2.30762 16.9987 2.37072 16.2235 2.49283 15.5213L0.522406 15.1787ZM21.8076 28.5V19.9H19.8076V28.5H21.8076ZM20.8076 18.9H1.30762V20.9H20.8076V18.9ZM0.307617 19.9V28.5H2.30762V19.9H0.307617ZM1.30762 27.5H0.807617V29.5H1.30762V27.5ZM1.80762 28.5V17.85H-0.192383V28.5H1.80762ZM1.80762 17.85C1.80762 16.9632 1.87105 16.1716 1.99283 15.4713L0.0224056 15.1287C-0.12248 15.9618 -0.192383 16.8702 -0.192383 17.85H1.80762ZM1.9866 15.504C2.14397 14.7486 2.34783 14.0281 2.59741 13.3417L0.717823 12.6583C0.434071 13.4386 0.204599 14.2514 0.0286369 15.096L1.9866 15.504ZM2.5892 13.3635L5.7892 5.16354L3.92604 4.43646L0.72604 12.6365L2.5892 13.3635ZM5.78837 5.16565C6.13147 4.29231 6.50949 3.59038 6.91267 3.0432L5.30256 1.8568C4.77241 2.57629 4.3171 3.44102 3.92687 4.43435L5.78837 5.16565ZM6.91267 3.0432C7.1176 2.76508 7.54408 2.5 8.50762 2.5V0.499997C7.20449 0.499997 6.03097 0.868247 5.30256 1.8568L6.91267 3.0432ZM8.50762 2.5H13.4076V0.499997H8.50762V2.5ZM13.4076 2.5C14.3311 2.5 14.7079 2.7598 14.8823 3.01468L16.5329 1.88532C15.8407 0.873529 14.6842 0.499997 13.4076 0.499997V2.5ZM14.9026 3.0432C15.3084 3.59398 15.7051 4.31759 16.0836 5.23235L17.9316 4.46765C17.5102 3.44908 17.0402 2.57268 16.5127 1.8568L14.9026 3.0432ZM16.0867 5.23982L19.5367 13.3898L21.3785 12.6102L17.9285 4.46017L16.0867 5.23982ZM19.5178 13.3417C19.7628 14.0153 19.9476 14.7224 20.0712 15.4644L22.044 15.1356C21.901 14.2776 21.6858 13.4514 21.3974 12.6583L19.5178 13.3417ZM20.0804 15.5124C20.2294 16.1976 20.3076 16.9751 20.3076 17.85H22.3076C22.3076 16.8583 22.2192 15.9357 22.0348 15.0876L20.0804 15.5124ZM20.3076 17.85V28.5H22.3076V17.85H20.3076ZM21.3076 27.5H20.8076V29.5H21.3076V27.5ZM38.3311 28.5H37.3311V29.5H38.3311V28.5ZM38.3311 1.5V0.499997H37.3311V1.5H38.3311ZM51.8311 1.95L51.5039 2.89498L51.5204 2.90067L51.537 2.90578L51.8311 1.95ZM53.8311 3.1L53.1 3.78232L53.1118 3.79492L53.1239 3.8071L53.8311 3.1ZM54.7811 4.75L53.814 5.00449V5.00449L54.7811 4.75ZM54.4811 12.75L53.5657 12.3473L53.5589 12.3628L53.5526 12.3786L54.4811 12.75ZM51.8311 14.55L51.5832 13.5812L51.8311 15.55V14.55ZM55.1811 15L54.8539 15.945L54.8704 15.9507L54.887 15.9558L55.1811 15ZM57.1811 16.2L56.4285 16.8585L56.439 16.8706L56.45 16.8823L57.1811 16.2ZM58.0811 18L57.0987 18.1871L57.103 18.2095L57.1083 18.2316L58.0811 18ZM58.0811 25.55L59.0447 25.8177L59.0481 25.8045L58.0811 25.55ZM57.1311 27.1L56.4506 26.3672L56.437 26.3798L56.424 26.3929L57.1311 27.1ZM55.1811 28.15L55.441 29.1156L55.4582 29.111L55.4751 29.1058L55.1811 28.15ZM38.8311 2V1H37.8311V2H38.8311ZM38.8311 14.55H37.8311V15.55H38.8311V14.55ZM51.7311 14.2L52.0111 15.16L52.0293 15.1547L52.0473 15.1487L51.7311 14.2ZM53.5311 13.2L52.824 12.4929V12.4929L53.5311 13.2ZM54.3311 11.75L53.3576 11.521L53.3524 11.5432L53.3482 11.5657L54.3311 11.75ZM53.3811 3.4L54.1538 2.76526V2.76526L53.3811 3.4ZM38.8311 15.05V14.05H37.8311V15.05H38.8311ZM38.8311 28H37.8311V29H38.8311V28ZM56.6811 26.8L57.403 27.4919L57.4101 27.4846L57.417 27.4771L56.6811 26.8ZM56.6811 16.55L55.8746 17.1414L55.881 17.15L55.8875 17.1584L56.6811 16.55ZM51.7811 27.5H38.3311V29.5H51.7811V27.5ZM39.3311 28.5V1.5H37.3311V28.5H39.3311ZM38.3311 2.5H48.4811V0.499997H38.3311V2.5ZM48.4811 2.5C49.7855 2.5 50.7806 2.6446 51.5039 2.89498L52.1582 1.00501C51.1482 0.655397 49.9099 0.499997 48.4811 0.499997V2.5ZM51.537 2.90578C52.2893 3.13726 52.7853 3.44512 53.1 3.78232L54.5621 2.41768C53.9435 1.75487 53.1062 1.29607 52.1251 0.994219L51.537 2.90578ZM53.1239 3.8071C53.4664 4.14959 53.6927 4.54377 53.814 5.00449L55.7481 4.49551C55.536 3.68956 55.129 2.98373 54.5382 2.39289L53.1239 3.8071ZM53.814 5.00449C53.9564 5.54553 54.0311 6.14245 54.0311 6.8H56.0311C56.0311 5.99088 55.9391 5.22114 55.7481 4.49551L53.814 5.00449ZM54.0311 6.8V10H56.0311V6.8H54.0311ZM54.0311 10C54.0311 10.8751 53.8713 11.6529 53.5657 12.3473L55.3964 13.1527C55.8242 12.1805 56.0311 11.1249 56.0311 10H54.0311ZM53.5526 12.3786C53.398 12.7652 52.9079 13.2423 51.5832 13.5812L52.0789 15.5188C53.6209 15.1243 54.8975 14.4015 55.4095 13.1214L53.5526 12.3786ZM51.8311 15.55C53.1355 15.55 54.1306 15.6946 54.8539 15.945L55.5082 14.055C54.4982 13.7054 53.2599 13.55 51.8311 13.55V15.55ZM54.887 15.9558C55.6251 16.1829 56.1139 16.499 56.4285 16.8585L57.9336 15.5415C57.3149 14.8343 56.4703 14.3504 55.4751 14.0442L54.887 15.9558ZM56.45 16.8823C56.7823 17.2383 56.9992 17.6644 57.0987 18.1871L59.0634 17.8129C58.8963 16.9356 58.5132 16.1617 57.9121 15.5177L56.45 16.8823ZM57.1083 18.2316C57.2543 18.8449 57.3311 19.5327 57.3311 20.3H59.3311C59.3311 19.4006 59.2412 18.5551 59.0539 17.7684L57.1083 18.2316ZM57.3311 20.3V23.5H59.3311V20.3H57.3311ZM57.3311 23.5C57.3311 24.1575 57.2564 24.7545 57.114 25.2955L59.0481 25.8045C59.2391 25.0789 59.3311 24.3091 59.3311 23.5H57.3311ZM57.1175 25.2824C57.0016 25.6999 56.7849 26.0567 56.4506 26.3672L57.8115 27.8328C58.4105 27.2766 58.8272 26.6001 59.0446 25.8176L57.1175 25.2824ZM56.424 26.3929C56.1481 26.6688 55.6668 26.9543 54.887 27.1942L55.4751 29.1058C56.4286 28.8124 57.2474 28.3979 57.8382 27.8071L56.424 26.3929ZM54.9211 27.1844C54.1726 27.3859 53.1364 27.5 51.7811 27.5V29.5C53.2257 29.5 54.4561 29.3808 55.441 29.1156L54.9211 27.1844ZM48.4811 1H38.8311V3H48.4811V1ZM37.8311 2V14.55H39.8311V2H37.8311ZM38.8311 15.55H48.4811V13.55H38.8311V15.55ZM48.4811 15.55C49.8902 15.55 51.0808 15.4313 52.0111 15.16L51.4511 13.24C50.7813 13.4353 49.8052 13.55 48.4811 13.55V15.55ZM52.0473 15.1487C52.9282 14.855 53.6878 14.4575 54.2382 13.9071L52.824 12.4929C52.5743 12.7425 52.1339 13.0116 51.4148 13.2513L52.0473 15.1487ZM54.2382 13.9071C54.7949 13.3504 55.1721 12.6907 55.3139 11.9343L53.3482 11.5657C53.29 11.876 53.1339 12.183 52.824 12.4929L54.2382 13.9071ZM55.3045 11.979C55.456 11.335 55.5311 10.6747 55.5311 10H53.5311C53.5311 10.5253 53.4728 11.0316 53.3576 11.521L55.3045 11.979ZM55.5311 10V6.8H53.5311V10H55.5311ZM55.5311 6.8C55.5311 5.26081 55.0829 3.89636 54.1538 2.76526L52.6083 4.03474C53.2125 4.77031 53.5311 5.67252 53.5311 6.8H55.5311ZM54.1538 2.76526C53.5988 2.08961 52.7912 1.65573 51.8558 1.38848C50.9185 1.12068 49.7846 1 48.4811 1V3C49.6775 3 50.6103 3.11266 51.3063 3.31152C52.0043 3.51094 52.3967 3.77705 52.6083 4.03474L54.1538 2.76526ZM51.8311 14.05H38.8311V16.05H51.8311V14.05ZM37.8311 15.05V28H39.8311V15.05H37.8311ZM38.8311 29H51.7811V27H38.8311V29ZM51.7811 29C53.0764 29 54.1966 28.8972 55.1189 28.6713C56.0314 28.4478 56.8367 28.0829 57.403 27.4919L55.9591 26.1081C55.7588 26.3171 55.3641 26.5522 54.6432 26.7287C53.9322 26.9028 52.9857 27 51.7811 27V29ZM57.417 27.4771C58.3872 26.4225 58.8311 25.0627 58.8311 23.5H56.8311C56.8311 24.6706 56.5082 25.5109 55.9451 26.1229L57.417 27.4771ZM58.8311 23.5V20.3H56.8311V23.5H58.8311ZM58.8311 20.3C58.8311 18.6233 58.3993 17.1477 57.4747 15.9416L55.8875 17.1584C56.4961 17.9523 56.8311 18.9767 56.8311 20.3H58.8311ZM57.4875 15.9586C56.9549 15.2325 56.1538 14.7603 55.214 14.4696C54.2761 14.1796 53.1382 14.05 51.8311 14.05V16.05C53.0239 16.05 53.9443 16.1704 54.6231 16.3804C55.3 16.5897 55.6738 16.8675 55.8746 17.1414L57.4875 15.9586ZM91.9115 27.3L92.5638 28.0581L92.5737 28.0493L91.9115 27.3ZM75.9615 27.3L75.2906 28.0416L75.3005 28.0504L75.9615 27.3ZM75.9615 2.8L76.6226 3.55042L76.6324 3.54153L75.9615 2.8ZM91.9115 2.8L91.2493 3.54939L91.2593 3.55801L91.9115 2.8ZM76.3615 26.95L75.703 27.7026L75.7084 27.7073L75.7139 27.7119L76.3615 26.95ZM91.5115 26.95L92.1499 27.7198L92.1554 27.7152L92.1608 27.7106L91.5115 26.95ZM91.5115 3.15L90.8623 3.91056L90.8677 3.9152L90.8732 3.91976L91.5115 3.15ZM76.3615 3.15L77.0092 3.91194L77.0146 3.9073L77.02 3.90258L76.3615 3.15ZM93.0615 22.4C93.0615 24.1282 92.457 25.4834 91.2493 26.5507L92.5737 28.0493C94.2327 26.5832 95.0615 24.6718 95.0615 22.4H93.0615ZM91.2593 26.542C90.1212 27.5212 87.7851 28.15 83.9115 28.15V30.15C87.838 30.15 90.8351 29.5454 92.5638 28.058L91.2593 26.542ZM83.9115 28.15C82.0079 28.15 80.452 27.9989 79.2257 27.7135C77.993 27.4267 77.1546 27.0183 76.6226 26.5496L75.3005 28.0504C76.1685 28.815 77.355 29.3316 78.7724 29.6615C80.196 29.9928 81.9151 30.15 83.9115 30.15V28.15ZM76.6324 26.5585C75.4556 25.4937 74.8615 24.1363 74.8615 22.4H72.8615C72.8615 24.6637 73.6674 26.573 75.2906 28.0415L76.6324 26.5585ZM74.8615 22.4V7.65H72.8615V22.4H74.8615ZM74.8615 7.65C74.8615 5.91384 75.455 4.57895 76.6226 3.55036L75.3005 2.04964C73.6681 3.48772 72.8615 5.38615 72.8615 7.65H74.8615ZM76.6324 3.54153C77.7323 2.54644 80.037 1.9 83.9115 1.9V-0.100001C79.9861 -0.100001 76.9908 0.52022 75.2906 2.05846L76.6324 3.54153ZM83.9115 1.9C87.7817 1.9 90.1125 2.54472 91.2493 3.54933L92.5737 2.05067C90.8438 0.521944 87.8413 -0.100001 83.9115 -0.100001V1.9ZM91.2593 3.55801C92.4577 4.58924 93.0615 5.92212 93.0615 7.65H95.0615C95.0615 5.37787 94.232 3.47742 92.5638 2.04199L91.2593 3.55801ZM93.0615 7.65V22.4H95.0615V7.65H93.0615ZM73.3615 22.4C73.3615 24.5375 74.1398 26.3348 75.703 27.7026L77.02 26.1974C75.9166 25.2319 75.3615 23.9959 75.3615 22.4H73.3615ZM75.7139 27.7119C76.5484 28.4213 77.6824 28.8973 79.0294 29.2006C80.3834 29.5055 82.0166 29.65 83.9115 29.65V27.65C82.1064 27.65 80.6313 27.5112 79.4687 27.2494C78.299 26.986 77.5079 26.612 77.0092 26.1881L75.7139 27.7119ZM83.9115 29.65C87.6352 29.65 90.4905 29.0958 92.1499 27.7198L90.8732 26.1802C89.7992 27.0709 87.5879 27.65 83.9115 27.65V29.65ZM92.1608 27.7106C93.7597 26.3456 94.5615 24.5463 94.5615 22.4H92.5615C92.5615 23.9871 91.9967 25.2211 90.8623 26.1894L92.1608 27.7106ZM94.5615 22.4V7.65H92.5615V22.4H94.5615ZM94.5615 7.65C94.5615 5.50326 93.7588 3.71448 92.1499 2.38024L90.8732 3.91976C91.9976 4.85218 92.5615 6.0634 92.5615 7.65H94.5615ZM92.1608 2.38944C90.4998 0.971523 87.6385 0.399999 83.9115 0.399999V2.4C87.5845 2.4 89.7899 2.99514 90.8623 3.91056L92.1608 2.38944ZM83.9115 0.399999C82.0152 0.399999 80.3798 0.548886 79.0232 0.863326C77.6729 1.17631 76.5373 1.66746 75.703 2.39742L77.02 3.90258C77.5191 3.46587 78.3085 3.08202 79.4748 2.81167C80.6349 2.54278 82.1078 2.4 83.9115 2.4V0.399999ZM75.7139 2.38806C74.1406 3.72536 73.3615 5.51224 73.3615 7.65H75.3615C75.3615 6.05442 75.9158 4.8413 77.0092 3.91194L75.7139 2.38806ZM73.3615 7.65V22.4H75.3615V7.65H73.3615ZM111.127 1.5V0.499997H110.127V1.5H111.127ZM111.627 1.5H112.627V0.499997H111.627V1.5ZM113.577 26.9L112.909 27.6442L112.919 27.6532L112.929 27.6619L113.577 26.9ZM128.677 26.9L129.324 27.6619L129.33 27.6573L129.335 27.6526L128.677 26.9ZM130.677 1.5V0.499997H129.677V1.5H130.677ZM131.177 1.5H132.177V0.499997H131.177V1.5ZM129.077 27.25L129.738 28.0004L129.748 27.9915L129.077 27.25ZM113.177 27.25L112.497 27.9834L112.506 27.992L112.516 28.0004L113.177 27.25ZM111.127 2.5H111.627V0.499997H111.127V2.5ZM110.627 1.5V22.35H112.627V1.5H110.627ZM110.627 22.35C110.627 24.4787 111.382 26.2737 112.909 27.6442L114.245 26.1558C113.172 25.193 112.627 23.9547 112.627 22.35H110.627ZM112.929 27.6619C113.764 28.3713 114.898 28.8473 116.245 29.1506C117.599 29.4555 119.232 29.6 121.127 29.6V27.6C119.322 27.6 117.847 27.4612 116.684 27.1994C115.514 26.936 114.723 26.562 114.224 26.1381L112.929 27.6619ZM121.127 29.6C123.022 29.6 124.655 29.4555 126.009 29.1506C127.356 28.8473 128.49 28.3713 129.324 27.6619L128.029 26.1381C127.53 26.562 126.739 26.936 125.57 27.1994C124.407 27.4612 122.932 27.6 121.127 27.6V29.6ZM129.335 27.6526C130.898 26.2848 131.677 24.4875 131.677 22.35H129.677C129.677 23.9459 129.122 25.1819 128.018 26.1474L129.335 27.6526ZM131.677 22.35V1.5H129.677V22.35H131.677ZM130.677 2.5H131.177V0.499997H130.677V2.5ZM130.177 1.5V22.35H132.177V1.5H130.177ZM130.177 22.35C130.177 24.0863 129.583 25.4437 128.406 26.5085L129.748 27.9915C131.371 26.523 132.177 24.6137 132.177 22.35H130.177ZM128.416 26.4996C127.884 26.9683 127.045 27.3767 125.813 27.6635C124.586 27.9489 123.03 28.1 121.127 28.1V30.1C123.123 30.1 124.842 29.9428 126.266 29.6115C127.683 29.2816 128.87 28.765 129.738 28.0004L128.416 26.4996ZM121.127 28.1C119.223 28.1 117.667 27.9489 116.441 27.6635C115.208 27.3767 114.37 26.9683 113.838 26.4996L112.516 28.0004C113.384 28.765 114.57 29.2816 115.988 29.6115C117.411 29.9428 119.13 30.1 121.127 30.1V28.1ZM113.857 26.5166C112.71 25.4541 112.127 24.0945 112.127 22.35H110.127C110.127 24.6055 110.91 26.5125 112.497 27.9834L113.857 26.5166ZM112.127 22.35V1.5H110.127V22.35H112.127ZM155.881 28.5H154.881V29.5H155.881V28.5ZM155.881 2H156.881V1H155.881V2ZM145.631 2H144.631V3H145.631V2ZM145.631 1.5V0.499997H144.631V1.5H145.631ZM166.631 1.5H167.631V0.499997H166.631V1.5ZM166.631 2V3H167.631V2H166.631ZM156.381 2V1H155.381V2H156.381ZM156.381 28.5V29.5H157.381V28.5H156.381ZM156.881 28.5V2H154.881V28.5H156.881ZM155.881 1H145.631V3H155.881V1ZM146.631 2V1.5H144.631V2H146.631ZM145.631 2.5H166.631V0.499997H145.631V2.5ZM165.631 1.5V2H167.631V1.5H165.631ZM166.631 1H156.381V3H166.631V1ZM155.381 2V28.5H157.381V2H155.381ZM156.381 27.5H155.881V29.5H156.381V27.5ZM198.948 28.5H197.948V29.5H198.948V28.5ZM198.948 2H199.948V1H198.948V2ZM188.698 2H187.698V3H188.698V2ZM188.698 1.5V0.499997H187.698V1.5H188.698ZM209.698 1.5H210.698V0.499997H209.698V1.5ZM209.698 2V3H210.698V2H209.698ZM199.448 2V1H198.448V2H199.448ZM199.448 28.5V29.5H200.448V28.5H199.448ZM199.948 28.5V2H197.948V28.5H199.948ZM198.948 1H188.698V3H198.948V1ZM189.698 2V1.5H187.698V2H189.698ZM188.698 2.5H209.698V0.499997H188.698V2.5ZM208.698 1.5V2H210.698V1.5H208.698ZM209.698 1H199.448V3H209.698V1ZM198.448 2V28.5H200.448V2H198.448ZM199.448 27.5H198.948V29.5H199.448V27.5ZM224.46 28.5H223.46V29.5H224.46V28.5ZM224.46 1.5V0.499997H223.46V1.5H224.46ZM224.96 1.5H225.96V0.499997H224.96V1.5ZM224.96 14.75H223.96V15.75H224.96V14.75ZM244.16 14.75V15.75H245.16V14.75H244.16ZM244.16 1.5V0.499997H243.16V1.5H244.16ZM244.66 1.5H245.66V0.499997H244.66V1.5ZM244.66 28.5V29.5H245.66V28.5H244.66ZM244.16 28.5H243.16V29.5H244.16V28.5ZM244.16 15.25H245.16V14.25H244.16V15.25ZM224.96 15.25V14.25H223.96V15.25H224.96ZM224.96 28.5V29.5H225.96V28.5H224.96ZM225.46 28.5V1.5H223.46V28.5H225.46ZM224.46 2.5H224.96V0.499997H224.46V2.5ZM223.96 1.5V14.75H225.96V1.5H223.96ZM224.96 15.75H244.16V13.75H224.96V15.75ZM245.16 14.75V1.5H243.16V14.75H245.16ZM244.16 2.5H244.66V0.499997H244.16V2.5ZM243.66 1.5V28.5H245.66V1.5H243.66ZM244.66 27.5H244.16V29.5H244.66V27.5ZM245.16 28.5V15.25H243.16V28.5H245.16ZM244.16 14.25H224.96V16.25H244.16V14.25ZM223.96 15.25V28.5H225.96V15.25H223.96ZM224.96 27.5H224.46V29.5H224.96V27.5ZM279.3 28H280.3V27H279.3V28ZM279.3 28.5V29.5H280.3V28.5H279.3ZM262.45 28.5H261.45V29.5H262.45V28.5ZM262.45 1.5V0.499997H261.45V1.5H262.45ZM279.3 1.5H280.3V0.499997H279.3V1.5ZM279.3 2V3H280.3V2H279.3ZM262.95 2V1H261.95V2H262.95ZM262.95 14.55H261.95V15.55H262.95V14.55ZM275.25 14.55H276.25V13.55H275.25V14.55ZM275.25 15.05V16.05H276.25V15.05H275.25ZM262.95 15.05V14.05H261.95V15.05H262.95ZM262.95 28H261.95V29H262.95V28ZM278.3 28V28.5H280.3V28H278.3ZM279.3 27.5H262.45V29.5H279.3V27.5ZM263.45 28.5V1.5H261.45V28.5H263.45ZM262.45 2.5H279.3V0.499997H262.45V2.5ZM278.3 1.5V2H280.3V1.5H278.3ZM279.3 1H262.95V3H279.3V1ZM261.95 2V14.55H263.95V2H261.95ZM262.95 15.55H275.25V13.55H262.95V15.55ZM274.25 14.55V15.05H276.25V14.55H274.25ZM275.25 14.05H262.95V16.05H275.25V14.05ZM261.95 15.05V28H263.95V15.05H261.95ZM262.95 29H279.3V27H262.95V29ZM313.157 28.5H312.157V29.5H313.157V28.5ZM313.157 2H314.157V1H313.157V2ZM302.907 2H301.907V3H302.907V2ZM302.907 1.5V0.499997H301.907V1.5H302.907ZM323.907 1.5H324.907V0.499997H323.907V1.5ZM323.907 2V3H324.907V2H323.907ZM313.657 2V1H312.657V2H313.657ZM313.657 28.5V29.5H314.657V28.5H313.657ZM314.157 28.5V2H312.157V28.5H314.157ZM313.157 1H302.907V3H313.157V1ZM303.907 2V1.5H301.907V2H303.907ZM302.907 2.5H323.907V0.499997H302.907V2.5ZM322.907 1.5V2H324.907V1.5H322.907ZM323.907 1H313.657V3H323.907V1ZM312.657 2V28.5H314.657V2H312.657ZM313.657 27.5H313.157V29.5H313.657V27.5ZM355.925 27.3L356.577 28.0581L356.587 28.0493L355.925 27.3ZM339.975 27.3L339.304 28.0416L339.314 28.0504L339.975 27.3ZM339.975 2.8L340.636 3.55042L340.646 3.54153L339.975 2.8ZM355.925 2.8L355.263 3.54939L355.273 3.55801L355.925 2.8ZM340.375 26.95L339.717 27.7026L339.722 27.7073L339.728 27.7119L340.375 26.95ZM355.525 26.95L356.164 27.7198L356.169 27.7152L356.174 27.7106L355.525 26.95ZM355.525 3.15L354.876 3.91056L354.881 3.9152L354.887 3.91976L355.525 3.15ZM340.375 3.15L341.023 3.91194L341.028 3.9073L341.034 3.90258L340.375 3.15ZM357.075 22.4C357.075 24.1282 356.471 25.4834 355.263 26.5507L356.587 28.0493C358.246 26.5832 359.075 24.6718 359.075 22.4H357.075ZM355.273 26.542C354.135 27.5212 351.799 28.15 347.925 28.15V30.15C351.852 30.15 354.849 29.5454 356.577 28.058L355.273 26.542ZM347.925 28.15C346.022 28.15 344.466 27.9989 343.239 27.7135C342.007 27.4267 341.168 27.0183 340.636 26.5496L339.314 28.0504C340.182 28.815 341.369 29.3316 342.786 29.6615C344.21 29.9928 345.929 30.15 347.925 30.15V28.15ZM340.646 26.5585C339.469 25.4937 338.875 24.1363 338.875 22.4H336.875C336.875 24.6637 337.681 26.573 339.304 28.0415L340.646 26.5585ZM338.875 22.4V7.65H336.875V22.4H338.875ZM338.875 7.65C338.875 5.91384 339.469 4.57895 340.636 3.55036L339.314 2.04964C337.682 3.48772 336.875 5.38615 336.875 7.65H338.875ZM340.646 3.54153C341.746 2.54644 344.051 1.9 347.925 1.9V-0.100001C344 -0.100001 341.004 0.52022 339.304 2.05846L340.646 3.54153ZM347.925 1.9C351.795 1.9 354.126 2.54472 355.263 3.54933L356.587 2.05067C354.858 0.521944 351.855 -0.100001 347.925 -0.100001V1.9ZM355.273 3.55801C356.471 4.58924 357.075 5.92212 357.075 7.65H359.075C359.075 5.37787 358.246 3.47742 356.577 2.04199L355.273 3.55801ZM357.075 7.65V22.4H359.075V7.65H357.075ZM337.375 22.4C337.375 24.5375 338.153 26.3348 339.717 27.7026L341.034 26.1974C339.93 25.2319 339.375 23.9959 339.375 22.4H337.375ZM339.728 27.7119C340.562 28.4213 341.696 28.8973 343.043 29.2006C344.397 29.5055 346.03 29.65 347.925 29.65V27.65C346.12 27.65 344.645 27.5112 343.482 27.2494C342.313 26.986 341.522 26.612 341.023 26.1881L339.728 27.7119ZM347.925 29.65C351.649 29.65 354.504 29.0958 356.164 27.7198L354.887 26.1802C353.813 27.0709 351.602 27.65 347.925 27.65V29.65ZM356.174 27.7106C357.773 26.3456 358.575 24.5463 358.575 22.4H356.575C356.575 23.9871 356.01 25.2211 354.876 26.1894L356.174 27.7106ZM358.575 22.4V7.65H356.575V22.4H358.575ZM358.575 7.65C358.575 5.50326 357.772 3.71448 356.164 2.38024L354.887 3.91976C356.011 4.85218 356.575 6.0634 356.575 7.65H358.575ZM356.174 2.38944C354.513 0.971523 351.652 0.399999 347.925 0.399999V2.4C351.598 2.4 353.804 2.99514 354.876 3.91056L356.174 2.38944ZM347.925 0.399999C346.029 0.399999 344.393 0.548886 343.037 0.863326C341.687 1.17631 340.551 1.66746 339.717 2.39742L341.034 3.90258C341.533 3.46587 342.322 3.08202 343.488 2.81167C344.649 2.54278 346.121 2.4 347.925 2.4V0.399999ZM339.728 2.38806C338.154 3.72536 337.375 5.51224 337.375 7.65H339.375C339.375 6.05442 339.929 4.8413 341.023 3.91194L339.728 2.38806ZM337.375 7.65V22.4H339.375V7.65H337.375ZM375.99 18.65V17.65H374.99V18.65H375.99ZM375.99 28.5V29.5H376.99V28.5H375.99ZM375.49 28.5H374.49V29.5H375.49V28.5ZM375.49 1.5V0.499997H374.49V1.5H375.49ZM390.09 2.05L389.736 2.985L389.755 2.99223L389.774 2.99868L390.09 2.05ZM392.39 3.45L393.138 2.78564V2.78563L392.39 3.45ZM393.49 5.6L392.518 5.83337V5.83337L393.49 5.6ZM393.49 14.7L394.461 14.9425L394.463 14.9334L393.49 14.7ZM392.39 16.8L393.119 17.4854L393.128 17.475L393.138 17.4644L392.39 16.8ZM390.09 18.15L389.774 17.2013L389.764 17.2046L390.09 18.15ZM375.99 18.15H374.99V19.15H375.99V18.15ZM389.84 17.7L389.534 16.7479L389.524 16.7513L389.84 17.7ZM391.99 16.45L392.72 17.1339L392.73 17.1229L392.74 17.1116L391.99 16.45ZM392.99 14.5L392.023 14.2476L392.019 14.2629L392.015 14.2784L392.99 14.5ZM392.99 5.8L392.013 6.01243L392.018 6.03252L392.023 6.05242L392.99 5.8ZM391.99 3.8L392.74 3.13838V3.13837L391.99 3.8ZM389.84 2.5L389.493 3.43775L389.514 3.44534L389.534 3.45203L389.84 2.5ZM375.99 2V1H374.99V2H375.99ZM386.29 17.65H375.99V19.65H386.29V17.65ZM374.99 18.65V28.5H376.99V18.65H374.99ZM375.99 27.5H375.49V29.5H375.99V27.5ZM376.49 28.5V1.5H374.49V28.5H376.49ZM375.49 2.5H386.29V0.499997H375.49V2.5ZM386.29 2.5C387.792 2.5 388.925 2.6775 389.736 2.985L390.445 1.115C389.322 0.689164 387.922 0.499997 386.29 0.499997V2.5ZM389.774 2.99868C390.659 3.29348 391.257 3.68003 391.643 4.11436L393.138 2.78563C392.457 2.01997 391.522 1.47318 390.407 1.10132L389.774 2.99868ZM391.643 4.11436C392.06 4.58312 392.354 5.1489 392.518 5.83337L394.463 5.36663C394.227 4.38443 393.788 3.51688 393.138 2.78564L391.643 4.11436ZM392.518 5.83337C392.698 6.58126 392.79 7.4021 392.79 8.3H394.79C394.79 7.26457 394.683 6.2854 394.463 5.36662L392.518 5.83337ZM392.79 8.3V12H394.79V8.3H392.79ZM392.79 12C392.79 12.8979 392.698 13.7187 392.518 14.4666L394.463 14.9334C394.683 14.0146 394.79 13.0354 394.79 12H392.79ZM392.52 14.4575C392.358 15.1054 392.066 15.6596 391.643 16.1356L393.138 17.4644C393.781 16.7404 394.223 15.8946 394.461 14.9425L392.52 14.4575ZM391.662 16.1146C391.275 16.5257 390.67 16.9026 389.774 17.2013L390.407 19.0987C391.51 18.7308 392.439 18.2077 393.119 17.4854L391.662 16.1146ZM389.764 17.2046C388.943 17.4879 387.799 17.65 386.29 17.65V19.65C387.915 19.65 389.305 19.4788 390.416 19.0954L389.764 17.2046ZM375.99 19.15H386.29V17.15H375.99V19.15ZM386.29 19.15C387.813 19.15 389.115 18.9959 390.157 18.6487L389.524 16.7513C388.766 17.0041 387.702 17.15 386.29 17.15V19.15ZM390.146 18.652C391.188 18.3171 392.071 17.8263 392.72 17.1339L391.261 15.7661C390.91 16.1404 390.359 16.4829 389.534 16.748L390.146 18.652ZM392.74 17.1116C393.35 16.4201 393.762 15.619 393.966 14.7216L392.015 14.2784C391.886 14.8477 391.63 15.3466 391.241 15.7884L392.74 17.1116ZM393.958 14.7524C394.182 13.8931 394.29 12.9739 394.29 12H392.29C392.29 12.8261 392.199 13.5736 392.023 14.2476L393.958 14.7524ZM394.29 12V8.3H392.29V12H394.29ZM394.29 8.3C394.29 7.32614 394.182 6.40694 393.958 5.54758L392.023 6.05242C392.199 6.72639 392.29 7.47385 392.29 8.3H394.29ZM393.968 5.58757C393.766 4.66086 393.358 3.83792 392.74 3.13838L391.241 4.46162C391.623 4.89541 391.881 5.40581 392.013 6.01243L393.968 5.58757ZM392.74 3.13837C392.091 2.40223 391.201 1.88703 390.146 1.54797L389.534 3.45203C390.346 3.71296 390.89 4.06444 391.241 4.46162L392.74 3.13837ZM390.188 1.56225C389.134 1.17198 387.82 1 386.29 1V3C387.695 3 388.747 3.16135 389.493 3.43775L390.188 1.56225ZM386.29 1H375.99V3H386.29V1ZM374.99 2V18.15H376.99V2H374.99ZM423.572 28.5V29.5H424.572V28.5H423.572ZM407.672 28.5H406.672V29.5H407.672V28.5ZM407.672 28V27H406.672V28H407.672ZM415.422 28V29H416.422V28H415.422ZM415.422 2H416.422V1H415.422V2ZM407.672 2H406.672V3H407.672V2ZM407.672 1.5V0.499997H406.672V1.5H407.672ZM423.572 1.5H424.572V0.499997H423.572V1.5ZM423.572 2V3H424.572V2H423.572ZM415.922 2V1H414.922V2H415.922ZM415.922 28H414.922V29H415.922V28ZM423.572 28H424.572V27H423.572V28ZM423.572 27.5H407.672V29.5H423.572V27.5ZM408.672 28.5V28H406.672V28.5H408.672ZM407.672 29H415.422V27H407.672V29ZM416.422 28V2H414.422V28H416.422ZM415.422 1H407.672V3H415.422V1ZM408.672 2V1.5H406.672V2H408.672ZM407.672 2.5H423.572V0.499997H407.672V2.5ZM422.572 1.5V2H424.572V1.5H422.572ZM423.572 1H415.922V3H423.572V1ZM414.922 2V28H416.922V2H414.922ZM415.922 29H423.572V27H415.922V29ZM422.572 28V28.5H424.572V28H422.572ZM455.446 28H456.446V27H455.446V28ZM455.446 28.5V29.5H456.446V28.5H455.446ZM440.646 27L439.95 27.7186L439.956 27.7241L439.962 27.7295L440.646 27ZM440.696 3L441.38 3.72954V3.72954L440.696 3ZM455.446 1.5H456.446V0.499997H455.446V1.5ZM455.446 2V3H456.446V2H455.446ZM441.146 3.4L441.803 4.15408L441.809 4.14815L441.816 4.1421L441.146 3.4ZM441.096 26.65L440.427 27.3933L441.096 26.65ZM454.446 28V28.5H456.446V28H454.446ZM455.446 27.5H447.096V29.5H455.446V27.5ZM447.096 27.5C445.524 27.5 444.26 27.3778 443.285 27.151C442.301 26.9221 441.686 26.604 441.33 26.2705L439.962 27.7295C440.673 28.396 441.666 28.8279 442.832 29.099C444.007 29.3722 445.435 29.5 447.096 29.5V27.5ZM441.341 26.2814C440.592 25.5565 440.096 24.2362 440.096 22.05H438.096C438.096 24.4638 438.633 26.4435 439.95 27.7186L441.341 26.2814ZM440.096 22.05V8.05H438.096V22.05H440.096ZM440.096 8.05C440.096 5.79436 440.61 4.45122 441.38 3.72954L440.012 2.27046C438.648 3.54878 438.096 5.57231 438.096 8.05H440.096ZM441.38 3.72954C441.737 3.39476 442.349 3.07708 443.324 2.84861C444.29 2.62215 445.541 2.5 447.096 2.5V0.499997C445.451 0.499997 444.035 0.627845 442.868 0.901381C441.709 1.17292 440.722 1.60524 440.012 2.27046L441.38 3.72954ZM447.096 2.5H455.446V0.499997H447.096V2.5ZM454.446 1.5V2H456.446V1.5H454.446ZM455.446 1H447.096V3H455.446V1ZM447.096 1C445.583 1 444.271 1.11974 443.179 1.37658C442.094 1.63189 441.162 2.03774 440.476 2.6579L441.816 4.1421C442.163 3.82893 442.739 3.53477 443.637 3.32342C444.529 3.1136 445.676 3 447.096 3V1ZM440.489 2.64592C439.135 3.82531 438.596 5.73278 438.596 8.05H440.596C440.596 5.96722 441.09 4.77469 441.803 4.15408L440.489 2.64592ZM438.596 8.05V22.05H440.596V8.05H438.596ZM438.596 22.05C438.596 24.3313 439.117 26.2143 440.427 27.3933L441.765 25.9067C441.075 25.2857 440.596 24.102 440.596 22.05H438.596ZM440.427 27.3933C441.104 28.0028 442.04 28.3936 443.126 28.6381C444.223 28.8849 445.553 29 447.096 29V27C445.639 27 444.469 26.8901 443.565 26.6869C442.652 26.4814 442.088 26.1972 441.765 25.9067L440.427 27.3933ZM447.096 29H455.446V27H447.096V29Z" fill="#FEFFE4" mask="url(#path-1-outside-1_140_562)"/>
</svg>
